<svg width="28" height="28" viewBox="0 0 28 28" fill="none" xmlns="http://www.w3.org/2000/svg">
<path fill-rule="evenodd" clip-rule="evenodd" d="M25.8823 14C25.8823 16.7907 24.9297 19.3588 23.332 21.3971L18.4455 20.0455L18.2348 19.964L18.6433 19.7293C19.2263 19.28 19.7561 18.7655 20.2229 18.1955C20.6913 17.5967 21.0544 16.9211 21.2972 16.1973C21.3747 16.0665 21.4253 15.9212 21.4461 15.7697C21.467 15.6182 21.4576 15.4635 21.4186 15.3147C21.3796 15.1659 21.3117 15.0259 21.2188 14.9028C21.126 14.7797 21.01 14.6759 20.8777 14.5975C20.6908 14.4524 20.4667 14.3648 20.2328 14.3455C19.999 14.3261 19.7657 14.3759 19.5618 14.4886C19.2322 14.687 18.9731 14.9837 18.8201 15.3383C18.6448 15.7277 18.4357 16.1004 18.1952 16.4522C17.4617 17.4442 16.4733 18.2158 15.3333 18.6862C14.5797 19.0245 13.7674 19.2166 12.9385 19.2526C12.7475 19.2519 12.5607 19.2351 12.3739 19.2182L12.3738 19.2181C12.187 19.2013 12.0002 19.1844 11.8092 19.1837C11.5176 19.1549 11.2272 19.234 10.9927 19.4061C10.7581 19.5782 10.5956 19.8314 10.5357 20.1182C10.483 20.322 10.4802 20.5364 10.5274 20.7431C10.5747 20.9499 10.6706 21.143 10.807 21.3061C11.0011 21.5023 11.2535 21.6292 11.5246 21.6669C12.9895 21.9466 14.4973 21.7734 15.848 21.1702L16.5352 20.9777L16.5063 21.1784L15.9294 23.6271L15.3367 25.9128C14.86 25.9704 14.3746 26 13.8823 26C7.25491 26 1.88232 20.6274 1.88232 14C1.88232 7.37258 7.25491 2 13.8823 2C20.5097 2 25.8823 7.37258 25.8823 14ZM19.3277 22.9441L21.2646 23.4612C20.3201 24.1993 19.2622 24.7989 18.1214 25.2298L18.1353 25.176C18.1575 25.0896 18.1797 25.0031 18.2022 24.9165L18.7238 22.9046C18.7575 22.7748 18.8119 22.7435 18.9281 22.7872L19.3277 22.9441ZM13.0639 7.31166C12.0419 7.23779 11.0261 7.47054 10.1454 7.9803C8.97366 8.65369 8.12218 9.7698 7.77684 11.0849C7.43151 12.4001 7.62038 13.8073 8.30222 14.9995C8.81295 15.8987 9.57586 16.6293 10.494 17.0984C11.4121 17.5676 12.444 17.754 13.4586 17.6342C14.4731 17.5143 15.4244 17.0935 16.1916 16.4252C16.9589 15.7569 17.5073 14.8714 17.7674 13.8811C18.0274 12.8908 17.9873 11.8405 17.652 10.8637C17.3168 9.88687 16.7016 9.02762 15.8846 8.39514C15.0676 7.76266 14.0858 7.38553 13.0639 7.31166ZM11.6191 14.7712C11.1672 14.5373 10.7923 14.1753 10.5416 13.7308C10.3742 13.4341 10.2664 13.108 10.2243 12.7713C10.1823 12.4345 10.2068 12.0938 10.2964 11.7687C10.3861 11.4437 10.5392 11.1406 10.7468 10.8771C10.9545 10.6136 11.2126 10.3947 11.5064 10.2332C11.9464 9.99124 12.45 9.88678 12.9536 9.93298C13.4572 9.97918 13.9383 10.174 14.3362 10.4928C14.7341 10.8116 15.031 11.2402 15.1894 11.7245C15.3479 12.2087 15.3607 12.727 15.2264 13.2139C15.0921 13.7008 14.8166 14.1346 14.4347 14.4605C14.0529 14.7864 13.5816 14.9898 13.0805 15.0451C12.5795 15.1004 12.0709 15.005 11.6191 14.7712Z" fill="#373334"/>
</svg>
