<svg width="214" height="48" viewBox="0 0 214 48" fill="none" xmlns="http://www.w3.org/2000/svg">
<path d="M213.604 9.48877C213.531 9.56234 213.421 9.67268 213.421 9.74624C213.239 12.0635 212.218 13.9025 210.577 15.4841C209.921 16.1094 209.884 16.1094 210.322 16.9186C211.161 18.4634 211.489 20.1554 211.306 21.8841C211.015 24.3485 209.848 26.3714 207.843 27.8795C206.493 28.8726 204.998 29.5346 203.358 29.5346C188.044 29.5346 172.729 29.4979 157.415 29.4611C151.8 29.4611 146.221 29.4611 140.606 29.4611C140.424 29.4611 140.278 29.4611 140.023 29.4611C140.205 28.7255 140.351 28.0266 140.533 27.3645C141.736 22.4726 142.976 17.5807 144.179 12.652C144.252 12.3209 144.398 12.2106 144.69 12.2474C146.148 12.2474 147.607 12.2474 149.065 12.2474C149.393 12.2474 149.503 12.2842 149.393 12.6888C148.664 15.5945 147.935 18.4634 147.242 21.3692C147.023 22.2151 146.841 23.0611 146.622 23.9071C146.549 24.2381 146.622 24.3485 146.951 24.3117C147.096 24.3117 147.279 24.3117 147.425 24.3117C165.947 24.3117 184.47 24.3117 203.03 24.3485C203.832 24.3485 204.524 24.2381 205.144 23.6864C205.728 23.1715 206.129 22.5462 206.275 21.737C206.639 19.6037 205.436 17.7646 203.248 17.4336C201.826 17.2129 200.441 17.2864 199.055 17.2864C185.455 17.2497 171.854 17.2864 158.254 17.2864C158.072 17.2864 157.853 17.2864 157.598 17.2864C157.78 16.6244 157.926 16.0359 158.072 15.4474C158.327 14.491 158.546 13.5347 158.801 12.5784C158.874 12.2474 159.02 12.137 159.348 12.137C160.004 12.2106 160.697 12.2106 161.353 12.2474C166.713 12.2842 172.037 12.3209 177.397 12.3577C180.86 12.3945 184.288 12.4313 187.752 12.4313C190.742 12.4681 193.732 12.5049 196.722 12.5049C199.493 12.5416 202.264 12.5784 205.035 12.5784C205.947 12.5784 206.785 12.2842 207.478 11.6221C208.317 10.8129 208.608 9.81981 208.535 8.6428C208.462 7.31867 207.405 5.92098 206.092 5.62672C205.728 5.55316 205.327 5.4796 204.926 5.4796C199.237 5.4796 193.586 5.4796 187.898 5.4796C176.923 5.44282 165.947 5.40604 154.972 5.40604C144.252 5.36925 133.532 5.33247 122.849 5.33247C122.193 5.33247 122.193 5.33247 122.047 5.95776C120.953 10.4083 119.859 14.8221 118.765 19.2726C117.963 22.5094 117.161 25.7462 116.359 28.9829C116.322 29.13 116.14 29.314 115.994 29.314C114.426 29.3507 112.858 29.314 111.254 29.314C111.217 29.314 111.145 29.2772 111.035 29.2772C111.327 28.137 111.582 27.0335 111.874 25.9301C113.442 19.6404 114.973 13.3876 116.541 7.09798C117.088 4.8911 117.635 2.68421 118.145 0.477326C118.218 0.109511 118.401 0.0359497 118.765 0.0359497C137.798 0.0359497 156.832 0.0359497 175.829 0.0359497C185.929 0.0359497 196.065 0.0359497 206.165 0.0359497C207.186 0.0359497 208.098 0.440545 208.936 0.881922C210.431 1.69111 211.525 2.86812 212.327 4.33937C212.984 5.58994 213.531 6.84051 213.567 8.27499C213.567 8.34855 213.64 8.42211 213.677 8.49568C213.604 8.86349 213.604 9.15774 213.604 9.48877Z" fill="#373334"/>
<path d="M164.6 48C164.819 46.8965 165.074 45.7931 165.293 44.6529C165.329 44.3954 165.475 44.285 165.73 44.3218C166.095 44.3954 166.277 44.2115 166.423 43.8805C167.48 41.8575 168.027 39.7242 168.465 37.5173C168.501 37.2598 168.574 37.1127 168.866 37.1127C170.616 37.1127 172.403 37.1127 174.153 37.1127C174.226 37.1127 174.262 37.1495 174.372 37.1495C174.189 37.9954 174.007 38.8782 173.825 39.7242C173.533 41.1586 173.205 42.5563 172.913 43.9908C172.877 44.2483 172.913 44.3586 173.205 44.3586C173.497 44.3586 173.533 44.469 173.46 44.7264C173.241 45.646 173.059 46.5655 172.877 47.485C172.84 47.6689 172.877 47.8161 172.877 48C172.476 48 172.075 48 171.637 48C171.783 47.1908 171.965 46.3816 172.111 45.5356C170.142 45.5356 168.21 45.5356 166.241 45.5356C166.095 46.3816 165.985 47.1908 165.84 48C165.438 48 165.001 48 164.6 48ZM172.622 38.2897C171.783 38.2897 170.981 38.3265 170.215 38.2897C169.85 38.2897 169.741 38.4368 169.632 38.7678C169.158 40.3494 168.611 41.8943 168.1 43.4391C167.991 43.7333 167.881 44.0276 167.772 44.3586C169.012 44.3586 170.142 44.3586 171.345 44.3586C171.783 42.3356 172.184 40.3494 172.622 38.2897Z" fill="#373334"/>
<path d="M97.7258 29.3883C99.6947 21.4068 101.664 13.4252 103.633 5.40687C103.304 5.40687 103.086 5.40687 102.867 5.40687C70.3426 5.40687 37.7817 5.40687 5.25739 5.44365C3.32489 5.44365 2.41333 4.08274 2.41333 2.5747C2.44979 1.39769 3.14258 0.331033 4.23644 0.0735631C4.45522 0.0367817 4.67399 0 4.8563 0C35.1929 0 65.5295 0 95.8662 0C100.533 0 105.164 0 109.831 0C110.014 0 110.196 0 110.415 0C110.159 1.10344 109.868 2.20689 109.612 3.27355C109.467 3.93561 109.357 4.63446 109.175 5.29652C108.847 6.65744 108.446 8.01835 108.081 9.37926C107.242 12.6896 106.404 15.9999 105.602 19.3102C104.799 22.547 104.034 25.8206 103.232 29.0573C103.195 29.1677 103.049 29.3516 102.94 29.3516C101.226 29.3884 99.4759 29.3883 97.7258 29.3883Z" fill="#9F0023"/>
<path d="M36.1058 29.5722C25.8234 29.5722 15.541 29.5722 5.2222 29.5722C3.98248 29.5722 2.998 28.8733 2.63337 27.6963C2.30521 26.7032 2.74276 25.5998 3.72724 24.9009C4.23771 24.5331 4.82111 24.4595 5.40451 24.4595C10.5092 24.4595 15.6504 24.4595 20.7551 24.4595C36.1058 24.4595 51.4199 24.4595 66.7705 24.4595C68.229 24.4595 69.6146 23.1354 69.8334 21.7009C70.0157 20.3768 69.724 19.2734 68.7395 18.3538C68.1561 17.8389 67.4998 17.5079 66.6976 17.5079C55.686 17.5079 44.6744 17.5079 33.6628 17.5079C32.5689 17.5079 31.7667 17.0665 31.2927 16.0366C30.7823 14.9699 31.001 13.9768 31.7667 13.1676C32.2408 12.6527 32.8241 12.3585 33.5899 12.3585C44.4921 12.3585 55.3578 12.3585 66.2601 12.3585C70.4532 12.3585 73.9901 15.3378 74.7558 19.4205C75.2663 22.1055 74.537 24.4963 72.7868 26.5561C71.3648 28.248 69.5417 29.1676 67.3904 29.5354C67.2081 29.5722 67.0258 29.5354 66.8799 29.5354C56.5976 29.5722 46.3517 29.5722 36.1058 29.5722Z" fill="#373334"/>
<path d="M151.181 45.4983C150.525 45.4983 149.832 45.4983 149.175 45.4983C148.884 45.4983 148.774 45.4248 148.847 45.0937C149.394 42.519 149.941 39.9443 150.488 37.3696C150.525 37.2593 150.743 37.0754 150.853 37.0754C152.129 37.0754 153.442 37.0754 154.718 37.1489C155.629 37.1857 156.249 37.7742 156.468 38.657C156.65 39.3926 156.286 40.2754 155.593 40.6432C155.483 40.7167 155.338 40.7535 155.192 40.8639C154.973 41.011 154.937 41.1213 155.192 41.3052C155.52 41.5627 155.848 41.8202 156.03 42.1512C156.468 42.8868 156.14 43.5857 155.739 44.2478C155.301 44.9834 154.535 45.2776 153.733 45.388C152.858 45.4983 151.983 45.4983 151.144 45.5351C151.181 45.5351 151.181 45.5351 151.181 45.4983ZM152.092 44.3213C152.457 44.3213 152.822 44.3213 153.186 44.3213C153.843 44.2845 154.353 44.0638 154.645 43.4386C154.937 42.7397 154.645 42.0041 153.879 41.8937C153.004 41.7834 152.092 41.8202 151.181 41.8202C151.108 41.8202 150.999 41.9673 150.999 42.0409C150.853 42.6662 150.707 43.3282 150.561 43.9535C150.525 44.1742 150.598 44.3213 150.853 44.3213C151.29 44.3213 151.691 44.3213 152.092 44.3213ZM151.327 40.68C152.348 40.6432 153.223 40.6064 154.098 40.5328C154.718 40.4593 155.082 39.834 155.009 39.1351C154.937 38.5834 154.572 38.2892 153.879 38.2892C153.405 38.2892 152.931 38.2892 152.494 38.2892C151.837 38.2892 151.801 38.2892 151.691 38.9512C151.546 39.4662 151.473 40.0179 151.327 40.68Z" fill="#373334"/>
<path d="M74.5357 45.4988C73.8429 45.4988 73.1501 45.4988 72.4938 45.4988C72.2021 45.4988 72.1292 45.3885 72.2021 45.131C72.749 42.5563 73.296 39.9816 73.8429 37.4069C73.8793 37.2598 74.0981 37.1127 74.2075 37.1127C75.4837 37.1127 76.7963 37.1127 78.0725 37.1862C79.057 37.2598 79.7133 37.9219 79.8592 38.8414C79.9686 39.4299 79.5675 40.4598 78.7288 40.7908C78.583 40.8276 78.5101 40.9747 78.4007 41.0851C78.5101 41.1954 78.583 41.3058 78.6924 41.3793C79.6039 41.9678 79.7862 42.777 79.3852 43.7701C78.9476 44.8 78.109 45.2781 77.088 45.3885C76.2494 45.4988 75.3743 45.4988 74.5357 45.5356C74.5357 45.5356 74.5357 45.5356 74.5357 45.4988ZM73.9158 44.3218C74.9368 44.3218 75.8483 44.3586 76.7234 44.3218C77.3068 44.3218 77.7808 43.9908 77.9996 43.4391C78.2913 42.7402 77.9996 42.0046 77.2703 41.8943C76.614 41.7839 75.9577 41.8207 75.2649 41.8207C74.4263 41.8207 74.3898 41.8207 74.2075 42.6667C74.1346 43.1816 74.0252 43.7333 73.9158 44.3218ZM76.4682 38.2897C76.14 38.2897 75.8119 38.2529 75.5202 38.2897C75.3743 38.3265 75.192 38.4736 75.1555 38.5839C75.0097 39.0989 74.9003 39.6506 74.7909 40.2023C74.718 40.4598 74.7909 40.6069 75.1191 40.6069C75.7025 40.6069 76.3223 40.6437 76.9057 40.6069C77.2339 40.5701 77.562 40.4966 77.8537 40.3494C78.2913 40.1287 78.5101 39.5035 78.4007 38.9885C78.2913 38.5471 77.9267 38.2897 77.3797 38.2897C77.0516 38.2897 76.7599 38.2897 76.4682 38.2897Z" fill="#373334"/>
<path d="M194.644 37.1127C194.279 38.8782 193.914 40.6069 193.55 42.3356C193.586 42.3724 193.623 42.4092 193.696 42.4092C193.914 42.2253 194.133 42.0782 194.315 41.8575C195.263 40.7173 196.211 39.577 197.196 38.4736C197.415 38.2161 197.597 37.9954 197.816 37.738C198.107 37.3334 198.436 37.0391 198.983 37.1495C199.201 37.1862 199.457 37.1495 199.748 37.1495C199.602 37.8483 199.457 38.4736 199.347 39.1356C198.91 41.1954 198.472 43.2184 198.035 45.2781C197.998 45.3885 197.816 45.5724 197.706 45.5724C196.321 45.5724 196.503 45.7931 196.795 44.5057C197.05 43.2184 197.342 41.931 197.633 40.6437C197.67 40.5333 197.597 40.3862 197.561 40.2759C197.451 40.3494 197.342 40.3494 197.269 40.4598C195.993 41.9678 194.716 43.5126 193.44 45.0207C193.003 45.5356 192.31 45.7931 191.727 45.6092C191.654 45.5724 191.544 45.3885 191.581 45.2781C191.836 44.0276 192.128 42.777 192.383 41.5264C192.675 40.2023 192.93 38.915 193.222 37.5908C193.294 37.2966 193.404 37.1862 193.696 37.223C193.914 37.1127 194.242 37.1127 194.644 37.1127Z" fill="#373334"/>
<path d="M160.623 37.1126C160.258 38.8781 159.893 40.6068 159.529 42.2988C159.565 42.3355 159.602 42.3723 159.675 42.3723C159.893 42.1884 160.112 42.0413 160.295 41.8206C161.243 40.6804 162.191 39.5402 163.175 38.4367C163.394 38.1792 163.613 37.9218 163.795 37.6643C164.087 37.2965 164.415 37.0022 164.925 37.0758C165.181 37.1126 165.399 37.0758 165.727 37.0758C165.545 37.9218 165.399 38.731 165.217 39.5034C164.816 41.3792 164.415 43.2919 164.014 45.1677C163.977 45.4252 163.868 45.462 163.649 45.462C162.336 45.4252 162.482 45.6459 162.774 44.3585C163.029 43.0712 163.321 41.7838 163.613 40.4965C163.649 40.3861 163.576 40.239 163.576 40.1287C163.467 40.1654 163.357 40.2022 163.284 40.3126C162.008 41.8206 160.696 43.3654 159.456 44.8735C159.018 45.3884 158.362 45.6459 157.742 45.462C157.669 45.4252 157.56 45.2413 157.596 45.1309C157.997 43.2183 158.399 41.3057 158.836 39.393C158.982 38.7677 159.128 38.1057 159.237 37.4804C159.274 37.1861 159.419 37.0758 159.711 37.0758C159.893 37.1126 160.222 37.1126 160.623 37.1126Z" fill="#373334"/>
<path d="M104.908 40.5336C104.835 42.5198 103.705 44.6899 101.699 45.4255C100.059 46.014 98.3085 45.6462 97.3605 44.1382C96.85 43.2922 96.7041 42.3359 96.9229 41.3428C97.1417 40.3497 97.4334 39.4301 98.0532 38.6209C98.6731 37.8118 99.4753 37.2968 100.46 37.0393C101.408 36.7819 102.356 36.8554 103.267 37.3704C104.325 37.9957 104.945 39.283 104.908 40.5336ZM98.3449 42.152C98.3449 43.0347 98.6002 43.8071 99.4388 44.2117C100.314 44.6163 101.153 44.506 101.882 43.9175C102.684 43.329 103.049 42.4462 103.267 41.4899C103.45 40.7543 103.45 39.9819 103.121 39.2462C102.538 37.9221 100.533 37.8118 99.5117 38.9152C98.7096 39.8347 98.3449 40.9382 98.3449 42.152Z" fill="#373334"/>
<path d="M39.2398 40.6063C39.0575 42.4454 38.4012 44.1005 36.6874 45.1304C34.9737 46.1235 32.786 45.9396 31.6921 44.1741C31.1452 43.2913 31.0358 42.2983 31.2546 41.3052C31.4733 40.3488 31.765 39.4293 32.3849 38.6201C33.0048 37.8109 33.8434 37.296 34.7914 37.0753C35.7394 36.8178 36.6874 36.8914 37.5625 37.4063C38.7658 38.0684 39.1669 39.2086 39.2398 40.6063ZM37.7084 40.5695C37.7084 40.496 37.7084 40.4592 37.7084 40.3856C37.7084 39.3925 37.2708 38.6569 36.5416 38.3626C35.4842 37.958 34.4268 38.3259 33.8434 38.9511C33.0048 39.8707 32.6401 41.0109 32.6401 42.2983C32.6766 43.1074 32.8954 43.8063 33.6611 44.1741C34.4632 44.5787 35.229 44.5419 35.9582 44.0638C37.2344 43.2178 37.599 41.9672 37.7084 40.5695Z" fill="#373334"/>
<path d="M71.3267 40.6063C71.1444 42.4454 70.4881 44.1005 68.7744 45.1304C67.0606 46.1235 64.8729 45.9396 63.779 44.1741C63.2321 43.2913 63.1227 42.2983 63.3415 41.3052C63.5603 40.3488 63.852 39.4293 64.4718 38.6201C65.0917 37.8109 65.9303 37.296 66.8783 37.0753C67.8263 36.8178 68.7744 36.8914 69.6495 37.4063C70.8527 38.0684 71.2903 39.2086 71.3267 40.6063ZM64.7635 42.1143C64.7635 43.0339 65.0187 43.6592 65.5292 44.027C66.4408 44.6523 67.644 44.5787 68.4462 43.8063C69.4307 42.85 69.8318 41.673 69.7953 40.3488C69.7953 39.3925 69.3213 38.6569 68.5921 38.3994C67.4982 37.958 66.4772 38.3994 65.9303 38.9879C65.1281 39.8339 64.7635 40.9373 64.7635 42.1143Z" fill="#373334"/>
<path d="M7.26492 44.432C8.32232 44.3585 8.50464 44.2114 8.72341 43.1815C9.12449 41.3056 9.52558 39.393 9.96313 37.5171C9.99959 37.37 10.1819 37.1125 10.2913 37.1125C12.0415 37.0758 13.8281 37.1125 15.6512 37.1125C15.4689 37.9585 15.3231 38.7309 15.1408 39.5401C14.7397 41.416 14.3386 43.3286 13.9375 45.2044C13.8646 45.4619 13.7917 45.5355 13.5364 45.5355C13.2447 45.5355 12.9895 45.5355 12.6978 45.5355C12.4061 45.5355 12.3696 45.4251 12.4061 45.1677C12.8436 43.1079 13.2812 41.0482 13.7187 38.9884C13.8646 38.3999 13.7917 38.3263 13.2083 38.3263C12.6978 38.3263 12.2238 38.3263 11.7133 38.3263C11.3852 38.3263 11.2393 38.3999 11.1664 38.7677C10.8018 40.5332 10.4007 42.3355 9.96313 44.0642C9.63497 45.2412 8.90572 45.7562 7.84831 45.7194C7.62954 45.7194 7.41077 45.6826 7.22845 45.609C7.15553 45.5723 7.04614 45.3884 7.04614 45.3148C7.11907 44.9838 7.22845 44.7263 7.26492 44.432Z" fill="#373334"/>
<path d="M140.424 37.1127C140.205 38.1058 140.023 39.0621 139.841 40.0184C139.476 41.7471 139.075 43.4759 138.71 45.2046C138.674 45.4621 138.565 45.4988 138.346 45.4988C138.054 45.4988 137.799 45.4988 137.507 45.4988C137.215 45.4988 137.143 45.3885 137.215 45.131C137.653 43.0713 138.091 41.0115 138.528 38.9517C138.674 38.3265 138.637 38.2897 137.981 38.2897C137.471 38.2897 136.997 38.2897 136.486 38.2897C136.158 38.2897 136.049 38.4 135.976 38.7311C135.575 40.5333 135.246 42.3356 134.736 44.0644C134.371 45.4621 133.423 45.9034 132.001 45.6092C131.928 45.5724 131.855 45.5356 131.746 45.4988C131.819 45.1678 131.928 44.8 132.001 44.469C133.095 44.3586 133.314 44.1747 133.533 42.9977C133.934 41.1586 134.298 39.2828 134.7 37.4437C134.736 37.2966 134.918 37.1127 135.064 37.1127C136.814 37.1127 138.565 37.1127 140.424 37.1127Z" fill="#373334"/>
<path d="M186.074 37.1122C185.855 38.2524 185.637 39.2823 185.381 40.4225C185.527 40.4593 185.673 40.4593 185.782 40.4593C186.694 40.4593 187.605 40.4593 188.553 40.4593C188.845 40.4593 188.991 40.3489 189.028 40.0915C189.21 39.2087 189.392 38.3627 189.574 37.48C189.611 37.2225 189.72 37.0754 190.012 37.1122C190.377 37.1122 190.741 37.1122 191.179 37.1122C190.996 37.9581 190.851 38.7305 190.668 39.5397C190.267 41.4156 189.866 43.3282 189.465 45.2041C189.429 45.4615 189.319 45.5351 189.064 45.5351C188.772 45.5351 188.517 45.5351 188.225 45.5351C187.934 45.5351 187.861 45.4248 187.934 45.1673C188.152 44.1742 188.371 43.2179 188.553 42.2248C188.663 41.7466 188.59 41.6731 188.152 41.6731C187.277 41.6731 186.439 41.6731 185.564 41.6731C185.235 41.6731 185.09 41.7466 185.017 42.0777C184.798 43.1443 184.543 44.1742 184.36 45.2409C184.324 45.4983 184.214 45.5719 183.996 45.5351C183.85 45.5351 183.74 45.5351 183.595 45.5351C182.574 45.5351 182.756 45.5351 182.938 44.7259C183.412 42.3351 183.959 39.9443 184.47 37.5535C184.543 37.2225 184.652 37.1122 184.98 37.1122C185.308 37.1122 185.673 37.1122 186.074 37.1122Z" fill="#373334"/>
<path d="M176.519 44.3585C178.196 44.3585 179.728 44.3585 181.332 44.3585C181.259 44.7263 181.186 45.0573 181.077 45.3516C181.04 45.4619 180.858 45.5355 180.749 45.5355C178.889 45.5355 177.03 45.5355 175.17 45.5355C174.878 45.5355 174.805 45.4251 174.878 45.1309C175.425 42.5562 175.972 40.0183 176.519 37.4436C176.556 37.2964 176.774 37.1125 176.884 37.1125C178.634 37.0758 180.421 37.1125 182.171 37.1125C182.426 37.1125 182.499 37.1493 182.426 37.4436C182.171 38.4735 182.317 38.2895 181.405 38.2895C180.348 38.2895 179.29 38.2895 178.269 38.2895C177.941 38.2895 177.795 38.3999 177.759 38.7309C177.686 39.3194 177.54 39.9079 177.394 40.5332C177.613 40.5332 177.795 40.57 177.978 40.57C179.072 40.57 180.129 40.57 181.223 40.57C181.77 40.57 181.77 40.57 181.624 41.1217V41.1585C181.587 41.6367 181.332 41.7838 180.822 41.7838C179.728 41.747 178.634 41.7838 177.54 41.7838C177.248 41.7838 177.103 41.8573 177.03 42.1884C176.847 42.8504 176.665 43.5493 176.519 44.3585Z" fill="#373334"/>
<path d="M126.934 40.5333C127.19 40.5333 127.335 40.5701 127.518 40.5701C128.648 40.5701 129.778 40.5701 130.872 40.5701C131.164 40.5701 131.273 40.6068 131.164 40.9379C130.909 41.8206 131.127 41.7471 130.143 41.7471C129.122 41.7471 128.138 41.7838 127.117 41.7471C126.716 41.7471 126.57 41.8942 126.497 42.2252C126.387 42.9241 126.242 43.5861 126.096 44.3218C126.351 44.3218 126.497 44.3585 126.679 44.3585C127.919 44.3585 129.159 44.3585 130.398 44.3585C130.763 44.3585 130.909 44.3953 130.763 44.8367C130.508 45.6091 130.726 45.5723 129.851 45.5723C128.138 45.5723 126.424 45.5723 124.747 45.5723C124.418 45.5723 124.309 45.4988 124.382 45.1309C124.929 42.593 125.476 40.0551 126.023 37.4804C126.059 37.3701 126.242 37.1862 126.351 37.1862C128.174 37.1862 129.997 37.1862 131.82 37.1862C131.857 37.1862 131.893 37.2229 132.003 37.2597C131.93 37.554 131.893 37.885 131.784 38.1793C131.747 38.2896 131.492 38.3632 131.346 38.3632C130.179 38.3632 129.049 38.3999 127.882 38.3632C127.481 38.3632 127.299 38.4367 127.226 38.9149C127.226 39.3563 127.08 39.908 126.934 40.5333Z" fill="#373334"/>
<path d="M113.405 37.186C113.332 37.5171 113.296 37.8481 113.15 38.1056C113.114 38.2159 112.858 38.2895 112.712 38.2895C111.546 38.2895 110.415 38.3263 109.249 38.2895C108.847 38.2895 108.665 38.363 108.629 38.8044C108.592 39.2458 108.483 39.6872 108.337 40.1285C108.228 40.4964 108.373 40.5699 108.702 40.5699C109.832 40.5699 110.962 40.5699 112.056 40.5699C112.202 40.5699 112.384 40.5699 112.603 40.5699C112.53 40.9377 112.457 41.2688 112.348 41.563C112.311 41.6734 112.056 41.7469 111.91 41.7469C110.743 41.7469 109.613 41.7469 108.446 41.7469C108.118 41.7469 107.936 41.8205 107.863 42.1883C107.754 42.7768 107.608 43.3653 107.498 43.9906C107.425 44.3216 107.608 44.3952 107.899 44.3952C109.176 44.3952 110.452 44.3952 111.691 44.3952C111.837 44.3952 112.02 44.3952 112.238 44.3952C112.166 44.763 112.093 45.094 111.983 45.3883C111.947 45.4986 111.764 45.5722 111.655 45.5722C109.759 45.5722 107.899 45.5722 106.003 45.5722C105.712 45.5722 105.675 45.4251 105.748 45.1676C106.186 43.1078 106.66 41.0113 107.097 38.9515C107.207 38.4734 107.28 37.9584 107.389 37.5171C107.425 37.3699 107.608 37.186 107.754 37.186C109.54 37.1492 111.327 37.186 113.114 37.186C113.223 37.1125 113.296 37.1492 113.405 37.186Z" fill="#373334"/>
<path d="M142.575 44.3218C143.559 44.3218 144.434 44.3218 145.309 44.3218C145.856 44.3218 146.403 44.3218 146.987 44.3218C147.242 44.3218 147.388 44.3586 147.278 44.6896C147.023 45.6092 147.242 45.4988 146.257 45.4988C144.58 45.4988 142.939 45.4988 141.262 45.4988C140.861 45.4988 140.752 45.4253 140.861 44.9839C141.408 42.446 141.918 39.9081 142.465 37.4069C142.502 37.2966 142.684 37.1127 142.793 37.1127C144.617 37.1127 146.44 37.1127 148.263 37.1127C148.299 37.1127 148.336 37.1495 148.445 37.1862C148.372 37.5173 148.299 37.8115 148.19 38.1426C148.153 38.2529 147.935 38.2897 147.789 38.2897C146.622 38.2897 145.492 38.3265 144.325 38.2897C143.924 38.2897 143.742 38.3632 143.669 38.8414C143.596 39.3931 143.45 39.9448 143.304 40.5333C143.559 40.5333 143.705 40.5701 143.887 40.5701C145.018 40.5701 146.148 40.5701 147.242 40.5701C147.534 40.5701 147.643 40.6069 147.534 40.9379C147.278 41.8207 147.497 41.7471 146.513 41.7471C145.492 41.7471 144.507 41.7839 143.486 41.7471C143.085 41.7471 142.939 41.8943 142.866 42.2253C142.866 42.8874 142.721 43.5862 142.575 44.3218Z" fill="#373334"/>
<path d="M207.805 37.1864C207.732 37.4806 207.695 37.8117 207.586 38.0324C207.513 38.1427 207.294 38.253 207.148 38.253C205.981 38.2898 204.778 38.2898 203.611 38.253C203.283 38.253 203.101 38.3266 203.064 38.6944C202.991 39.1726 202.882 39.6507 202.773 40.0921C202.736 40.2025 202.736 40.3128 202.736 40.4967C203.101 40.4967 203.429 40.4967 203.721 40.4967C204.705 40.4967 205.69 40.4967 206.638 40.4967C206.929 40.4967 207.039 40.5335 206.929 40.8645C206.674 41.7473 206.893 41.6737 205.908 41.6737C204.888 41.6737 203.867 41.6737 202.846 41.6737C202.554 41.6737 202.372 41.7473 202.299 42.0783C202.189 42.7036 202.043 43.2921 201.898 43.9174C201.861 44.0277 201.898 44.1013 201.934 44.2484C202.116 44.2484 202.335 44.2852 202.517 44.2852C203.757 44.2852 204.997 44.2852 206.237 44.2852C206.565 44.2852 206.747 44.3588 206.565 44.6898C206.528 44.8001 206.492 44.9473 206.455 45.0576C206.419 45.3519 206.273 45.4622 205.981 45.4622C204.158 45.4622 202.299 45.4622 200.476 45.4622C200.147 45.4622 200.075 45.3886 200.147 45.0576C200.694 42.5197 201.241 39.9818 201.788 37.4071C201.825 37.2599 202.007 37.076 202.116 37.076C203.939 37.0393 205.763 37.076 207.586 37.076C207.659 37.1128 207.695 37.1496 207.805 37.1864Z" fill="#373334"/>
<path d="M21.4821 43.5863C20.3518 43.5863 19.2579 43.5863 18.164 43.5863C18.0547 43.5863 17.9088 43.6966 17.8359 43.807C17.5442 44.2851 17.3254 44.7633 17.0337 45.2047C16.9608 45.3518 16.742 45.4621 16.5597 45.4989C16.1951 45.5357 15.8305 45.4989 15.3564 45.4989C15.8669 44.5794 16.3045 43.6966 16.7785 42.8506C17.3254 41.8208 17.9088 40.7909 18.4922 39.761C18.9297 38.9518 19.3673 38.1426 19.8413 37.3702C19.9142 37.2599 20.0965 37.1495 20.2424 37.1495C20.6799 37.1127 21.081 37.1495 21.5186 37.1495C21.7373 37.1495 21.8467 37.1863 21.8832 37.4438C22.2478 39.8346 22.6489 42.2254 23.0135 44.6162C23.05 44.9104 23.0865 45.2047 23.1594 45.5357C22.7583 45.5357 22.3572 45.5725 21.9926 45.4989C21.8467 45.4621 21.7009 45.2414 21.6644 45.0943C21.5915 44.6162 21.555 44.138 21.4821 43.5863ZM18.7474 42.4093C19.4402 42.4093 20.0965 42.4093 20.7164 42.4093C21.2633 42.4093 21.3363 42.2989 21.2633 41.7472C21.1175 40.8277 20.9716 39.9081 20.8258 38.9886C20.8258 38.915 20.7529 38.8415 20.7164 38.7311C20.6435 38.8047 20.5341 38.8415 20.4976 38.915C19.9507 39.9081 19.4038 40.9012 18.8933 41.8943C18.7839 42.0415 18.7839 42.1886 18.7474 42.4093Z" fill="#373334"/>
<path d="M95.0268 45.4984C94.5527 45.4984 94.1152 45.4984 93.7141 45.4984C93.6047 45.4984 93.4953 45.3512 93.4589 45.2409C93.2036 44.3949 92.9849 43.5489 92.7296 42.7398C92.6202 42.3352 92.5108 41.9673 92.0368 41.7834C91.6358 41.6363 91.4534 41.7099 91.3441 42.1513C91.1253 43.1811 90.8701 44.1742 90.6877 45.2041C90.6513 45.4984 90.5054 45.5351 90.2867 45.5351C90.1408 45.5351 90.0314 45.5351 89.8856 45.5351C89.0834 45.5351 89.0834 45.5351 89.2657 44.726C89.7762 42.3352 90.2867 39.9076 90.7971 37.5168C90.8336 37.2593 90.943 37.1122 91.2347 37.149C91.5993 37.149 91.9639 37.149 92.4015 37.149C92.2556 37.7743 92.1462 38.3628 92.0368 38.9513C91.9275 39.3926 91.8545 39.834 91.7451 40.2754C91.6722 40.68 91.8181 40.8639 92.2191 40.7168C92.5108 40.6064 92.8025 40.4225 92.9849 40.2018C93.4589 39.503 93.8964 38.7674 94.3704 38.0685C94.9174 37.2961 95.6831 37.0386 96.6676 37.149C96.5582 37.48 96.4852 37.7743 96.3758 38.0317C96.3394 38.1053 96.1571 38.2156 96.0477 38.1789C95.5737 38.1421 95.3549 38.3996 95.1361 38.7674C94.808 39.3191 94.4433 39.8708 94.0423 40.3858C93.86 40.6432 93.5318 40.8271 93.2401 40.9743C93.0213 41.0846 92.9849 41.1949 93.1672 41.3053C93.9329 41.6731 94.1881 42.3719 94.3704 43.1444C94.5892 43.9168 94.808 44.6892 95.0268 45.4984Z" fill="#373334"/>
<path d="M55.4313 39.4298C54.9208 39.4666 54.4833 39.5401 54.0093 39.5769C53.9728 39.5033 53.8999 39.4666 53.8634 39.393C53.6811 38.2528 52.4779 38.0689 51.6028 38.2895C50.6912 38.5102 50.1443 39.1355 49.7797 39.9815C49.3786 40.9378 49.1963 41.8941 49.415 42.924C49.5609 43.6964 49.9984 44.2849 50.8006 44.4321C51.6757 44.5792 52.4414 44.3217 52.9883 43.5493C53.1707 43.3286 53.28 43.0344 53.4624 42.7401C53.8999 42.8137 54.3739 42.8872 54.8479 42.9608C54.0822 45.2045 51.6392 46.3447 49.5974 45.4251C48.6493 44.9838 48.1024 44.1746 47.9201 43.1447C47.6284 41.5631 47.9565 40.0918 48.8316 38.7677C49.8526 37.2229 52.0768 36.524 53.7541 37.2597C54.7021 37.6275 55.249 38.3631 55.4313 39.4298Z" fill="#373334"/>
<path d="M88.4637 39.4297C88.0262 39.4665 87.5886 39.54 87.1511 39.5768C87.0781 39.5768 86.9687 39.4665 86.9687 39.3929C86.8229 38.8044 86.5312 38.4366 85.9478 38.2895C85.2915 38.1423 84.7081 38.1791 84.0882 38.5102C83.0673 39.0619 82.7391 40.055 82.5203 41.0849C82.411 41.6734 82.411 42.3354 82.5203 42.9607C82.6297 43.7331 83.1037 44.2848 83.8695 44.432C84.7081 44.6159 85.4738 44.3216 86.0207 43.6228C86.203 43.4021 86.3124 43.1078 86.4947 42.7768C86.9323 42.8504 87.4063 42.9239 87.8803 42.9975C87.1511 45.2412 84.5987 46.4182 82.6297 45.4618C81.7182 45.0205 81.1712 44.2113 80.9889 43.2182C80.6972 41.6366 81.0254 40.1653 81.9005 38.8412C82.9214 37.2964 85.1092 36.5975 86.8229 37.3332C87.698 37.5538 88.3908 38.5102 88.4637 39.4297Z" fill="#373334"/>
<path d="M1.2105 38.8406C1.61158 37.8107 2.37729 37.2958 3.28885 37.0383C4.23687 36.7809 5.14843 36.9648 5.98706 37.4797C7.26324 38.2521 7.2997 39.9441 6.05998 40.79C5.87767 40.9004 5.73182 41.0107 5.54951 41.0843C5.22135 41.2314 5.25781 41.3785 5.51305 41.5257C6.97154 42.4084 6.60692 44.1739 5.40366 44.9831C3.98163 45.9027 2.45022 45.9762 0.955262 45.167C0.554177 44.9463 0.298941 44.4314 0.00724251 44.0268C-0.0292198 43.99 0.080167 43.7693 0.153092 43.7325C0.481252 43.5854 0.845875 43.5119 1.17404 43.4383C1.24696 43.4383 1.42927 43.5486 1.5022 43.659C2.04913 44.5417 3.68993 44.7624 4.4921 44.0636C4.89319 43.6958 5.03904 43.144 4.89319 42.6659C4.71088 42.0774 4.23687 41.9303 3.68993 41.8567C3.54409 41.8199 3.36177 41.8567 3.143 41.8567C3.21592 41.4521 3.28885 41.1211 3.36177 40.7533C3.39824 40.6797 3.58055 40.6061 3.68993 40.5694C3.98163 40.4958 4.34626 40.5326 4.63795 40.4222C5.25781 40.2015 5.51305 39.6866 5.44012 39.0245C5.40366 38.6199 5.03904 38.2521 4.52857 38.2153C3.83578 38.1418 3.10654 38.1786 2.70545 38.9142C2.66899 38.9878 2.52314 39.0613 2.41375 39.0613C2.08559 39.0245 1.68451 38.9142 1.2105 38.8406Z" fill="#373334"/>
<path d="M39.6768 45.5723C39.6768 45.4619 39.7132 45.3516 39.7132 45.278C39.7497 44.5424 39.7497 44.5056 40.4789 44.5424C41.2446 44.5792 42.1927 43.5493 41.901 42.6665C41.3905 41.0482 40.9529 39.3562 40.4789 37.701C40.4425 37.5171 40.406 37.3332 40.3331 37.1125C40.8071 37.1125 41.2082 37.0758 41.6093 37.1125C41.7186 37.1125 41.901 37.2964 41.901 37.4068C42.1927 38.6574 42.4479 39.8711 42.7031 41.1217C42.7396 41.3056 42.849 41.4527 42.9584 41.5999C43.1042 41.4895 43.2865 41.416 43.3959 41.2688C44.3075 39.9815 45.219 38.6941 46.1306 37.4436C46.24 37.2964 46.4952 37.1861 46.6775 37.1493C47.0421 37.1125 47.4432 37.1493 47.8443 37.1493C47.8443 37.2229 47.8443 37.2964 47.8078 37.3332C45.9118 39.8344 44.0522 42.3723 42.1562 44.8734C41.5728 45.6826 40.6977 45.8665 39.6768 45.5723Z" fill="#373334"/>
<path d="M57.4692 45.4988C57.9797 43.0713 58.4901 40.7172 58.9641 38.2897C58.089 38.2897 57.3233 38.2897 56.4482 38.2897C56.5212 37.8851 56.5941 37.5541 56.667 37.2598C56.7035 37.1862 56.8493 37.1127 56.9223 37.1127C59.0006 37.1127 61.0425 37.1127 63.1938 37.1127C63.1208 37.4805 63.0844 37.7747 62.975 38.069C62.9385 38.1793 62.7198 38.2897 62.5739 38.2897C61.8811 38.3265 61.1883 38.2897 60.4591 38.2897C60.058 40.2023 59.6569 42.0414 59.2923 43.9172C59.1829 44.3586 59.1465 44.8 59.0006 45.2414C58.9641 45.3517 58.7818 45.4988 58.6724 45.4988C58.3443 45.5356 57.9432 45.4988 57.4692 45.4988Z" fill="#373334"/>
<path d="M120.404 38.2897C119.492 38.2897 118.727 38.2897 117.888 38.2897C117.961 37.9219 118.034 37.5908 118.107 37.2598C118.107 37.1862 118.253 37.1127 118.325 37.1127C120.404 37.1127 122.482 37.1127 124.633 37.1127C124.561 37.4805 124.524 37.7747 124.415 38.069C124.378 38.1793 124.159 38.2897 124.014 38.2897C123.321 38.3265 122.628 38.2897 121.899 38.2897C121.425 40.6069 120.914 42.8506 120.477 45.131C120.404 45.4253 120.331 45.5356 120.039 45.5356C119.675 45.5356 119.31 45.5356 118.872 45.5356C119.419 43.108 119.893 40.754 120.404 38.2897Z" fill="#373334"/>
<path d="M31.1082 37.1857C31.0353 37.4432 30.9988 37.7742 30.9259 38.0685C30.8895 38.1788 30.7071 38.2524 30.5613 38.2524C30.0144 38.2892 29.4674 38.2524 28.884 38.2524C28.7382 38.2524 28.5559 38.2524 28.41 38.2892C27.936 40.5696 27.4255 42.8501 26.988 45.0937C26.9151 45.388 26.8421 45.4983 26.5504 45.4983C26.1858 45.4983 25.8212 45.4983 25.4201 45.4983C25.6024 44.6156 25.7847 43.7696 25.967 42.9236C26.2587 41.4891 26.5869 40.0914 26.8786 38.657C26.9515 38.3995 26.8421 38.2524 26.5504 38.2524C25.8577 38.2524 25.2013 38.2524 24.3992 38.2524C24.4721 37.8846 24.5086 37.5903 24.6179 37.2593C24.6544 37.1857 24.8003 37.0754 24.9096 37.0754C26.9515 37.0754 29.0299 37.0754 31.0718 37.0754C31.0353 37.1122 31.0353 37.1489 31.1082 37.1857Z" fill="#373334"/>
</svg>
