<svg width="69" height="20" viewBox="0 0 69 20" fill="none" xmlns="http://www.w3.org/2000/svg">
<path fill-rule="evenodd" clip-rule="evenodd" d="M17.3968 16.0611C17.2009 16.7826 16.9214 17.1575 16.0197 17.3649C14.0227 17.7447 12.0256 17.8425 10.0284 17.8424C8.03146 17.8425 6.03437 17.7447 4.03729 17.3649C3.13582 17.1575 2.85618 16.7826 2.66022 16.0612C2.2652 14.0409 2.16412 12.0204 2.16455 10C2.16402 7.9796 2.2652 5.9592 2.66032 3.93879C2.85618 3.21728 3.13582 2.84243 4.0374 2.63501C6.03448 2.25527 8.03146 2.15751 10.0285 2.15751C12.0257 2.15741 14.0228 2.25527 16.0198 2.63501C16.9215 2.84243 17.2009 3.2175 17.3969 3.93879C17.7921 5.9592 17.8931 7.9796 17.8926 10C17.8932 12.0204 17.7921 14.0409 17.3968 16.0611ZM20.0571 9.99096H20.0568C20.0558 7.84749 19.8647 5.7038 19.4783 3.56033C19.2355 2.14358 18.1165 0.908404 16.5733 0.593122C14.3965 0.197956 12.2197 0.00202104 10.0428 0.000319112V0C10.0379 0 10.0332 0.000106371 10.0284 0.000106371C10.0237 0.000106371 10.019 0 10.0143 0V0.000319112C7.83763 0.00202104 5.66059 0.197849 3.48377 0.593122C1.94062 0.908404 0.821632 2.14369 0.578814 3.56033C0.192333 5.7038 0.0012808 7.84749 0.000320199 9.99096H0C0 9.99394 0.000106733 9.99702 0.000106733 10C0.000106733 10.003 0 10.0062 0 10.009H0.000320199C0.0012808 12.1525 0.192333 14.2962 0.578814 16.4397C0.821632 17.8562 1.94062 19.0916 3.48377 19.407C5.66059 19.8019 7.83742 19.998 10.0143 19.9998V19.9999C10.019 19.9999 10.0237 19.9999 10.0284 19.9999C10.0333 19.9998 10.038 20 10.0428 20V19.9995C12.2197 19.998 14.3965 19.802 16.5733 19.4069C18.1165 19.0914 19.2356 17.8561 19.4783 16.4396C19.8647 14.2959 20.0558 12.1524 20.0568 10.0089H20.0571C20.0571 10.0059 20.057 10.0029 20.057 9.99989C20.0571 9.99692 20.0571 9.99394 20.0571 9.99096Z" fill="#373334"/>
<path fill-rule="evenodd" clip-rule="evenodd" d="M15.1268 13.3362L11.8123 10.0084L13.299 8.51563C13.4114 8.43478 13.5101 8.33682 13.5897 8.22364L14.8287 6.97974C15.1404 6.68191 15.3878 6.38194 15.3878 5.95135C15.3878 5.2725 14.8357 4.72235 14.1547 4.72235C13.7672 4.72235 13.4515 4.91541 13.1908 5.15485L13.1834 5.16666L11.6145 6.74158L11.6087 6.73583L10.0809 8.27002L8.55307 6.73594L8.5471 6.74169L6.97865 5.16676L6.97097 5.15974C6.66614 4.87137 6.39471 4.72235 6.00706 4.72235C5.3261 4.72235 4.77408 5.2725 4.77408 5.95135C4.77408 6.38194 5.04603 6.67201 5.33315 6.97974L6.5721 8.22364C6.65173 8.33671 6.75046 8.43478 6.86295 8.51563L8.34953 10.0084L5.03515 13.3362L5.0328 13.3293C4.8616 13.5404 4.77344 13.8284 4.77344 14.1209C4.77344 14.7996 5.32546 15.3499 6.00653 15.3499C6.44168 15.3497 6.7591 15.1052 7.04269 14.7855L8.22946 13.594C8.38465 13.4976 8.51817 13.3696 8.61722 13.2165L10.0809 11.7468L11.5446 13.2165C11.6437 13.3697 11.7772 13.4976 11.9324 13.5942L13.1192 14.7856C13.3929 15.0561 13.7202 15.35 14.1554 15.35C14.8363 15.3498 15.3885 14.7998 15.3885 14.121C15.3885 13.8285 15.3051 13.5503 15.1338 13.3393L15.1268 13.3362ZM68.978 14.6235C68.9626 14.5032 68.9393 14.4063 68.9083 14.3321C68.8775 14.2583 68.8387 14.2043 68.7922 14.1703C68.7458 14.1364 68.6951 14.1193 68.639 14.1193H63.5259V10.7424H67.943C67.9989 10.7424 68.0498 10.7271 68.0962 10.6961C68.1427 10.6654 68.1813 10.6145 68.2123 10.5435C68.2434 10.4725 68.2665 10.3785 68.2819 10.2612C68.2974 10.1441 68.3053 9.99609 68.3053 9.81707C68.3053 9.64443 68.2975 9.49796 68.2819 9.37765C68.2665 9.25724 68.2432 9.16183 68.2123 9.09088C68.1815 9.01993 68.1425 8.96749 68.0962 8.93345C68.0498 8.89952 67.9989 8.88271 67.943 8.88271H63.5259V5.95922H68.602C68.6578 5.95922 68.707 5.94231 68.7508 5.90848C68.7939 5.87455 68.8308 5.82052 68.8619 5.74648C68.893 5.67245 68.9161 5.57533 68.9315 5.45503C68.947 5.33472 68.9549 5.18836 68.9549 5.01561C68.9549 4.83053 68.9471 4.67788 68.9315 4.55758C68.9161 4.43717 68.893 4.33877 68.8619 4.26144C68.8311 4.18443 68.7939 4.1305 68.7508 4.09965C68.707 4.0687 68.6578 4.05328 68.602 4.05328H61.8178C61.6139 4.05328 61.4418 4.11359 61.3025 4.23389C61.1632 4.35409 61.0937 4.55003 61.0937 4.82127V15.2574C61.0937 15.5288 61.1632 15.7246 61.3025 15.8449C61.4418 15.9652 61.6138 16.0253 61.8178 16.0253H68.639C68.695 16.0253 68.7458 16.0085 68.7922 15.9743C68.8387 15.9406 68.8775 15.8864 68.9083 15.8123C68.9394 15.7385 68.9626 15.6413 68.978 15.521C68.9936 15.4006 69.0012 15.2512 69.0012 15.0722C69.0013 14.8935 68.9936 14.7438 68.978 14.6235ZM57.1398 4.97785C57.0585 4.89392 56.9159 4.7951 56.7113 4.68129C56.5066 4.56737 56.2496 4.4611 55.9398 4.36239C55.6303 4.26346 55.2682 4.17943 54.8534 4.11061C54.4382 4.04179 53.9787 4.00732 53.4733 4.00732C52.5533 4.00732 51.7195 4.14805 50.9709 4.42962C50.2223 4.71139 49.583 5.11719 49.0546 5.64745C48.5254 6.17771 48.1163 6.82189 47.8277 7.57988C47.539 8.33788 47.3947 9.19321 47.3947 10.1461C47.3948 11.0687 47.5302 11.8941 47.8006 12.6221C48.0716 13.3503 48.4618 13.9674 48.9732 14.4737C49.4842 14.9801 50.1078 15.3666 50.8443 15.6331C51.5807 15.8998 52.4152 16.0331 53.3474 16.0331C53.6659 16.0331 53.9831 16.0182 54.2989 15.9882C54.6145 15.9582 54.9269 15.9132 55.2366 15.8534C55.5463 15.7936 55.8454 15.7217 56.134 15.6377C56.4225 15.5537 56.6646 15.4729 56.86 15.3949C57.0551 15.3172 57.1844 15.2108 57.248 15.076C57.311 14.941 57.3425 14.7838 57.3425 14.6042V9.81835C57.3425 9.69836 57.327 9.59199 57.2971 9.49923C57.2674 9.40627 57.2237 9.32691 57.1666 9.26107C57.1093 9.19512 57.0434 9.14576 56.9682 9.11268C56.8929 9.07971 56.8072 9.06333 56.7112 9.06333H52.7701C52.7158 9.06333 52.6677 9.07992 52.6257 9.11268C52.5837 9.14576 52.5471 9.19672 52.5172 9.26565C52.4874 9.33447 52.4647 9.42594 52.4498 9.53976C52.4349 9.65347 52.427 9.79441 52.427 9.96205C52.4271 10.2855 52.457 10.5149 52.5171 10.6496C52.5774 10.7844 52.6614 10.8518 52.77 10.8518H54.9793V13.7051C54.7571 13.8251 54.5165 13.9151 54.2577 13.9749C53.9995 14.0347 53.738 14.0647 53.4731 14.0647C52.9324 14.0647 52.4375 13.9779 51.9896 13.8039C51.5419 13.6302 51.1586 13.3725 50.8396 13.0311C50.5211 12.6895 50.2728 12.2657 50.0959 11.7592C49.9185 11.253 49.8295 10.6672 49.8295 10.0022C49.8295 9.39691 49.9168 8.8441 50.0908 8.34384C50.2656 7.84347 50.515 7.41512 50.8396 7.05846C51.1648 6.70201 51.555 6.4263 52.0123 6.23153C52.4692 6.03687 52.9799 5.93944 53.5456 5.93944C54.0742 5.93944 54.5391 5.99337 54.9389 6.10123C55.3387 6.20909 55.6826 6.32599 55.9711 6.45172C56.2598 6.57766 56.4914 6.69446 56.6656 6.80221C56.8403 6.91007 56.9664 6.964 57.0448 6.964C57.0986 6.964 57.1451 6.94911 57.1842 6.91922C57.2236 6.88922 57.2566 6.83689 57.2837 6.76179C57.3108 6.68701 57.3318 6.5866 57.3467 6.46076C57.3617 6.33482 57.3694 6.18526 57.3694 6.01134C57.3694 5.71181 57.3513 5.48545 57.3152 5.3327C57.2796 5.17995 57.221 5.06188 57.1398 4.97785ZM37.8075 11.4262L39.4932 6.37566H39.5026L41.189 11.4262H37.8075ZM41.2901 4.55737C41.2531 4.44121 41.2088 4.34931 41.1564 4.28197C41.1043 4.21453 41.0182 4.16401 40.8988 4.1305C40.7787 4.09678 40.6111 4.0754 40.3962 4.06615C40.1811 4.05689 39.8925 4.05243 39.5302 4.05243C39.2168 4.05232 38.9652 4.057 38.7745 4.06615C38.5842 4.0754 38.4349 4.09678 38.3277 4.1305C38.2205 4.16411 38.142 4.21315 38.0928 4.27729C38.0436 4.34154 38.0004 4.42579 37.9639 4.52982L34.2872 15.0719C34.2135 15.2863 34.1675 15.4577 34.1488 15.5862C34.1306 15.7148 34.1522 15.8145 34.2134 15.8847C34.2749 15.9551 34.3854 15.9994 34.5453 16.0177C34.7052 16.0361 34.9263 16.0454 35.2087 16.0454C35.4725 16.0453 35.6865 16.0391 35.8489 16.027C36.0116 16.0146 36.1376 15.9917 36.2266 15.9581C36.3156 15.9244 36.3803 15.8786 36.4201 15.8203C36.4605 15.7622 36.4925 15.6903 36.5168 15.6045L37.2727 13.2812H41.7506L42.5523 15.6688C42.5767 15.7485 42.6076 15.8129 42.6446 15.8617C42.6817 15.9107 42.7459 15.9489 42.8382 15.9765C42.9301 16.0039 43.0637 16.0224 43.2391 16.0314C43.4138 16.0407 43.6583 16.0454 43.9717 16.0454C44.2725 16.0453 44.5091 16.0376 44.6811 16.0224C44.853 16.007 44.9725 15.9673 45.0404 15.903C45.108 15.8388 45.1328 15.7422 45.114 15.6136C45.0958 15.4851 45.0494 15.3106 44.9758 15.0902L41.2901 4.55737ZM30.0772 8.72092C29.9903 8.98323 29.8637 9.2082 29.6962 9.39627C29.5292 9.58454 29.3143 9.73091 29.0515 9.83579C28.7883 9.94057 28.4616 9.9929 28.0718 9.9929H26.4252V5.93135H28.0159C28.2698 5.93135 28.5157 5.94848 28.754 5.98241C28.9924 6.01634 29.2195 6.09804 29.4363 6.22749C29.653 6.35694 29.8354 6.55756 29.9842 6.8288C30.133 7.10026 30.2071 7.44586 30.2071 7.86506C30.2072 8.17354 30.1641 8.45882 30.0772 8.72092ZM31.9616 5.34398C31.7017 5.05114 31.3877 4.80893 31.0193 4.61778C30.6512 4.42664 30.2873 4.29559 29.9285 4.22443C29.5698 4.15369 29.2617 4.10742 29.0052 4.08572C28.7479 4.06413 28.4772 4.05317 28.1928 4.05317H24.8102C24.5626 4.05317 24.3629 4.12582 24.2116 4.2707C24.0596 4.41547 23.9837 4.6331 23.9837 4.92296V15.6921C23.9837 15.7537 24.0025 15.8092 24.0396 15.8586C24.0767 15.908 24.1419 15.9481 24.2347 15.9789C24.3277 16.0099 24.4526 16.0343 24.6108 16.0529C24.7683 16.0713 24.9647 16.0807 25.2 16.0807C25.4412 16.0806 25.6397 16.0713 25.7945 16.0529C25.9488 16.0343 26.0726 16.0099 26.1655 15.9789C26.2585 15.9482 26.3248 15.908 26.365 15.8586C26.4055 15.8092 26.4253 15.7538 26.4253 15.6921V11.8711H27.9789C28.7712 11.8711 29.4595 11.7784 30.0446 11.5935C30.6295 11.4083 31.1228 11.1386 31.5253 10.7839C31.9278 10.4293 32.2342 9.99269 32.4441 9.47466C32.6549 8.95674 32.7599 8.36139 32.7599 7.68923C32.7599 7.20206 32.692 6.76253 32.5559 6.37077C32.4194 5.97933 32.2215 5.63692 31.9616 5.34398Z" fill="#373334"/>
</svg>
