<svg width="28" height="28" viewBox="0 0 28 28" fill="none" xmlns="http://www.w3.org/2000/svg">
<path fill-rule="evenodd" clip-rule="evenodd" d="M25.4996 13.9991V18.9814C25.4882 20.2824 25.083 21.5496 24.3375 22.616C23.592 23.6824 22.541 24.4982 21.3229 24.956C20.2867 25.3428 19.1857 25.5264 18.0801 25.4969H9.4371C8.04294 25.5289 6.6719 25.1372 5.50504 24.3737C4.09518 23.5009 3.08139 22.1128 2.6792 20.5043C2.56363 20.013 2.50352 19.5102 2.5 19.0055V9.16844C2.5 7.48011 2.97212 5.96407 4.17483 4.74089C5.31101 3.51475 6.85419 2.74329 8.51698 2.57019C9.33968 2.49616 10.1624 2.4985 10.9746 2.5008C11.1831 2.5014 11.3909 2.50199 11.5978 2.50128H18.2007C19.6929 2.50128 21.1264 2.74247 22.4015 3.5694C23.8157 4.4138 24.8491 5.77163 25.286 7.35952C25.4179 7.90101 25.4861 8.45606 25.4893 9.01339C25.5054 10.1206 25.5 11.2277 25.4946 12.3349C25.492 12.8885 25.4893 13.4421 25.4893 13.9957L25.4996 13.9991ZM14.0099 18.9124C12.9585 18.8968 11.9353 18.5707 11.0689 17.9751C10.2024 17.3795 9.53147 16.5411 9.1404 15.5652C8.74933 14.5894 8.6556 13.5197 8.87101 12.4907C9.08642 11.4617 9.60134 10.5194 10.351 9.78231C11.1007 9.04518 12.0516 8.54615 13.0842 8.34799C14.1168 8.14983 15.185 8.26139 16.1543 8.66863C17.1237 9.07587 17.951 9.76061 18.5321 10.6367C19.1132 11.5128 19.4222 12.5412 19.4203 13.5925C19.404 15.0139 18.8258 16.3711 17.8122 17.3678C16.7985 18.3645 15.4316 18.9198 14.0099 18.9124ZM10.3328 13.5821C10.3191 14.3141 10.5237 15.0335 10.9205 15.6488C11.3172 16.2641 11.8882 16.7473 12.5607 17.037C13.2331 17.3266 13.9766 17.4095 14.6964 17.2752C15.4162 17.1408 16.0796 16.7952 16.6022 16.2824C17.1248 15.7697 17.4829 15.113 17.6309 14.396C17.7788 13.679 17.7099 12.9343 17.433 12.2566C17.156 11.5789 16.6836 10.999 16.0758 10.5907C15.468 10.1825 14.7524 9.96443 14.0202 9.9643C13.053 9.96056 12.1233 10.3383 11.433 11.0157C10.7427 11.693 10.3473 12.6152 10.3328 13.5821ZM20.97 8.42268C21.0997 8.24164 21.1732 8.02641 21.1814 7.80386C21.1825 7.50017 21.0656 7.20792 20.8554 6.98873C20.6451 6.76953 20.358 6.64053 20.0545 6.62892C19.8317 6.62772 19.6136 6.69214 19.4272 6.81414C19.2409 6.93613 19.0946 7.11031 19.0067 7.31492C18.9187 7.51953 18.893 7.7455 18.9327 7.96464C18.9724 8.18377 19.0758 8.38635 19.23 8.54709C19.3842 8.70783 19.5823 8.81961 19.7996 8.86847C20.0169 8.91733 20.2438 8.9011 20.452 8.82182C20.6601 8.74254 20.8403 8.60372 20.97 8.42268Z" fill="#373334"/>
</svg>
