<svg width="16" height="17" viewBox="0 0 16 17" fill="none" xmlns="http://www.w3.org/2000/svg">
<g clip-path="url(#clip0_9_43)">
<path d="M8.00004 0.5C4.80488 0.5 2.20544 3.09944 2.20544 6.29456C2.20544 10.2598 7.39104 16.081 7.61182 16.3269C7.81919 16.5579 8.18126 16.5575 8.38826 16.3269C8.60904 16.081 13.7946 10.2598 13.7946 6.29456C13.7946 3.09944 11.1952 0.5 8.00004 0.5ZM8.00004 9.20997C6.39248 9.20997 5.08466 7.90212 5.08466 6.29456C5.08466 4.687 6.39251 3.37919 8.00004 3.37919C9.60757 3.37919 10.9154 4.68703 10.9154 6.29459C10.9154 7.90216 9.60757 9.20997 8.00004 9.20997Z" fill="#FFB334"/>
</g>
<defs>
<clipPath id="clip0_9_43">
<rect width="16" height="16" fill="white" transform="translate(0 0.5)"/>
</clipPath>
</defs>
</svg>
