<svg width="104" height="24" viewBox="0 0 104 24" fill="none" xmlns="http://www.w3.org/2000/svg">
<path d="M103.965 4.74405C103.929 4.78084 103.876 4.83601 103.876 4.87279C103.787 6.03141 103.29 6.95094 102.492 7.74174C102.172 8.05439 102.154 8.05439 102.367 8.45898C102.775 9.23139 102.935 10.0774 102.846 10.9417C102.704 12.1739 102.137 13.1854 101.161 13.9394C100.504 14.436 99.7763 14.767 98.9776 14.767C91.524 14.767 84.0703 14.7486 76.6167 14.7302C73.8837 14.7302 71.1684 14.7302 68.4354 14.7302C68.3467 14.7302 68.2757 14.7302 68.1514 14.7302C68.2402 14.3624 68.3112 14.013 68.3999 13.6819C68.9855 11.236 69.5889 8.79001 70.1746 6.32566C70.2101 6.16014 70.2811 6.10497 70.423 6.12336C71.1329 6.12336 71.8428 6.12336 72.5526 6.12336C72.7124 6.12336 72.7656 6.14175 72.7124 6.34405C72.3574 7.79692 72.0025 9.23139 71.6653 10.6843C71.5588 11.1072 71.4701 11.5302 71.3636 11.9532C71.3281 12.1187 71.3636 12.1739 71.5233 12.1555C71.5943 12.1555 71.6831 12.1555 71.754 12.1555C80.7694 12.1555 89.7848 12.1555 98.8179 12.1739C99.2084 12.1739 99.5455 12.1187 99.8472 11.8429C100.131 11.5854 100.326 11.2728 100.397 10.8682C100.575 9.8015 99.9892 8.88197 98.9244 8.71645C98.2323 8.60611 97.5579 8.64289 96.8835 8.64289C90.264 8.6245 83.6444 8.64289 77.0248 8.64289C76.9361 8.64289 76.8296 8.64289 76.7054 8.64289C76.7941 8.31186 76.8651 8.0176 76.9361 7.72335C77.0603 7.24519 77.1668 6.76703 77.291 6.28888C77.3265 6.12336 77.3975 6.06819 77.5572 6.06819C77.8767 6.10497 78.2139 6.10497 78.5333 6.12336C81.1421 6.14175 83.7331 6.16014 86.3419 6.17853C88.0279 6.19692 89.6961 6.21531 91.382 6.21531C92.8373 6.2337 94.2925 6.25209 95.7477 6.25209C97.0965 6.27048 98.4452 6.28888 99.794 6.28888C100.238 6.28888 100.646 6.14175 100.983 5.81072C101.391 5.40612 101.533 4.90957 101.498 4.32107C101.462 3.659 100.948 2.96015 100.309 2.81303C100.131 2.77625 99.936 2.73947 99.7408 2.73947C96.9723 2.73947 94.2215 2.73947 91.453 2.73947C86.1112 2.72108 80.7694 2.70268 75.4276 2.70268C70.2101 2.68429 64.9925 2.6659 59.7927 2.6659C59.4732 2.6659 59.4733 2.6659 59.4023 2.97855C58.8699 5.20382 58.3375 7.41071 57.8051 9.63599C57.4146 11.2544 57.0242 12.8728 56.6338 14.4911C56.616 14.5647 56.5273 14.6567 56.4563 14.6567C55.6932 14.675 54.9301 14.6567 54.1492 14.6567C54.1315 14.6567 54.096 14.6383 54.0427 14.6383C54.1847 14.0682 54.3089 13.5164 54.4509 12.9647C55.214 9.81989 55.9594 6.69347 56.7225 3.54866C56.9887 2.44521 57.2549 1.34177 57.5034 0.238327C57.5388 0.05442 57.6276 0.0176392 57.8051 0.0176392C67.0689 0.0176392 76.3327 0.0176392 85.5788 0.0176392C90.4947 0.0176392 95.4283 0.0176392 100.344 0.0176392C100.841 0.0176392 101.285 0.219937 101.693 0.440626C102.421 0.845222 102.953 1.43372 103.343 2.16935C103.663 2.79464 103.929 3.41992 103.947 4.13716C103.947 4.17394 103.982 4.21072 104 4.24751C103.965 4.43141 103.965 4.57854 103.965 4.74405Z" fill="#373334"/>
<path d="M80.1138 24C80.2203 23.4483 80.3445 22.8965 80.451 22.3264C80.4687 22.1977 80.5397 22.1425 80.6639 22.1609C80.8414 22.1977 80.9301 22.1057 81.0011 21.9402C81.5158 20.9287 81.782 19.8621 81.9949 18.7586C82.0127 18.6299 82.0482 18.5563 82.1901 18.5563C83.042 18.5563 83.9116 18.5563 84.7634 18.5563C84.7989 18.5563 84.8167 18.5747 84.8699 18.5747C84.7812 18.9977 84.6925 19.4391 84.6037 19.8621C84.4617 20.5793 84.302 21.2782 84.16 21.9954C84.1423 22.1241 84.16 22.1793 84.302 22.1793C84.444 22.1793 84.4617 22.2345 84.4262 22.3632C84.3198 22.823 84.231 23.2828 84.1423 23.7425C84.1246 23.8345 84.1423 23.908 84.1423 24C83.9471 24 83.7519 24 83.5389 24C83.6099 23.5954 83.6986 23.1908 83.7696 22.7678C82.8113 22.7678 81.8707 22.7678 80.9124 22.7678C80.8414 23.1908 80.7881 23.5954 80.7172 24C80.5219 24 80.309 24 80.1138 24ZM84.0181 19.1448C83.6099 19.1448 83.2195 19.1632 82.8468 19.1448C82.6693 19.1448 82.6161 19.2184 82.5628 19.3839C82.3321 20.1747 82.0659 20.9471 81.8175 21.7195C81.7642 21.8667 81.711 22.0138 81.6577 22.1793C82.2611 22.1793 82.8113 22.1793 83.3969 22.1793C83.6099 21.1678 83.8051 20.1747 84.0181 19.1448Z" fill="#373334"/>
<path d="M47.5647 14.6942C48.523 10.7034 49.4814 6.71261 50.4397 2.70344C50.28 2.70344 50.1735 2.70344 50.067 2.70344C34.2369 2.70344 18.389 2.70344 2.55881 2.72183C1.61823 2.72183 1.17456 2.04137 1.17456 1.28735C1.19231 0.698847 1.5295 0.165517 2.0619 0.0367816C2.16838 0.0183909 2.27486 0 2.3636 0C17.1289 0 31.8943 0 46.6596 0C48.9312 0 51.1851 0 53.4567 0C53.5454 0 53.6341 0 53.7406 0C53.6164 0.551722 53.4744 1.10344 53.3502 1.63677C53.2792 1.96781 53.2259 2.31723 53.1372 2.64826C52.9775 3.32872 52.7823 4.00918 52.6048 4.68963C52.1966 6.3448 51.7885 7.99996 51.398 9.65513C51.0076 11.2735 50.6349 12.9103 50.2445 14.5287C50.2267 14.5838 50.1557 14.6758 50.1025 14.6758C49.2684 14.6942 48.4166 14.6942 47.5647 14.6942Z" fill="#9F0023"/>
<path d="M17.5735 14.7861C12.5689 14.7861 7.5643 14.7861 2.54195 14.7861C1.93856 14.7861 1.4594 14.4367 1.28193 13.8482C1.12221 13.3516 1.33517 12.7999 1.81433 12.4505C2.06279 12.2666 2.34674 12.2298 2.63069 12.2298C5.11524 12.2298 7.61754 12.2298 10.1021 12.2298C17.5735 12.2298 25.0272 12.2298 32.4986 12.2298C33.2084 12.2298 33.8828 11.5677 33.9893 10.8505C34.078 10.1884 33.9361 9.63671 33.4569 9.17695C33.1729 8.91948 32.8535 8.75396 32.4631 8.75396C27.1035 8.75396 21.744 8.75396 16.3845 8.75396C15.8521 8.75396 15.4616 8.53327 15.2309 8.01833C14.9825 7.485 15.0889 6.98845 15.4616 6.58386C15.6923 6.32639 15.9763 6.17926 16.349 6.17926C21.6553 6.17926 26.9438 6.17926 32.2501 6.17926C34.291 6.17926 36.0124 7.66891 36.3851 9.71028C36.6336 11.0528 36.2786 12.2482 35.4268 13.2781C34.7347 14.1241 33.8473 14.5838 32.8003 14.7677C32.7115 14.7861 32.6228 14.7677 32.5518 14.7677C27.5472 14.7861 22.5604 14.7861 17.5735 14.7861Z" fill="#373334"/>
<path d="M73.5822 22.7493C73.2628 22.7493 72.9256 22.7493 72.6062 22.7493C72.4642 22.7493 72.4109 22.7125 72.4464 22.547C72.7126 21.2597 72.9788 19.9723 73.245 18.685C73.2628 18.6298 73.3693 18.5378 73.4225 18.5378C74.0437 18.5378 74.6825 18.5378 75.3037 18.5746C75.7473 18.593 76.049 18.8873 76.1555 19.3286C76.2443 19.6965 76.0668 20.1378 75.7296 20.3217C75.6764 20.3585 75.6054 20.3769 75.5344 20.4321C75.4279 20.5056 75.4102 20.5608 75.5344 20.6528C75.6941 20.7815 75.8538 20.9102 75.9426 21.0758C76.1555 21.4436 75.9958 21.793 75.8006 22.124C75.5876 22.4918 75.2149 22.639 74.8245 22.6941C74.3986 22.7493 73.9727 22.7493 73.5645 22.7677C73.5822 22.7677 73.5822 22.7677 73.5822 22.7493ZM74.0259 22.1608C74.2034 22.1608 74.3808 22.1608 74.5583 22.1608C74.8778 22.1424 75.1262 22.0321 75.2682 21.7194C75.4102 21.37 75.2682 21.0022 74.8955 20.947C74.4696 20.8919 74.0259 20.9102 73.5822 20.9102C73.5467 20.9102 73.4935 20.9838 73.4935 21.0206C73.4225 21.3332 73.3515 21.6643 73.2805 21.9769C73.2628 22.0872 73.2983 22.1608 73.4225 22.1608C73.6355 22.1608 73.8307 22.1608 74.0259 22.1608ZM73.6532 20.3401C74.1501 20.3217 74.5761 20.3033 75.002 20.2666C75.3037 20.2298 75.4811 19.9171 75.4456 19.5677C75.4102 19.2919 75.2327 19.1447 74.8955 19.1447C74.6648 19.1447 74.4341 19.1447 74.2211 19.1447C73.9017 19.1447 73.8839 19.1447 73.8307 19.4758C73.7597 19.7332 73.7242 20.0091 73.6532 20.3401Z" fill="#373334"/>
<path d="M36.2775 22.7494C35.9403 22.7494 35.6031 22.7494 35.2837 22.7494C35.1417 22.7494 35.1062 22.6942 35.1417 22.5655C35.4079 21.2782 35.6741 19.9908 35.9403 18.7035C35.9581 18.6299 36.0645 18.5563 36.1178 18.5563C36.7389 18.5563 37.3778 18.5563 37.9989 18.5931C38.4781 18.6299 38.7976 18.9609 38.8685 19.4207C38.9218 19.715 38.7266 20.2299 38.3184 20.3954C38.2474 20.4138 38.2119 20.4874 38.1587 20.5425C38.2119 20.5977 38.2474 20.6529 38.3006 20.6897C38.7443 20.9839 38.833 21.3885 38.6378 21.8851C38.4249 22.4 38.0167 22.6391 37.5198 22.6942C37.1116 22.7494 36.6857 22.7494 36.2775 22.7678C36.2775 22.7678 36.2775 22.7678 36.2775 22.7494ZM35.9758 22.1609C36.4727 22.1609 36.9164 22.1793 37.3423 22.1609C37.6263 22.1609 37.857 21.9954 37.9634 21.7195C38.1054 21.3701 37.9634 21.0023 37.6085 20.9471C37.2891 20.892 36.9696 20.9103 36.6324 20.9103C36.2243 20.9103 36.2065 20.9103 36.1178 21.3333C36.0823 21.5908 36.029 21.8667 35.9758 22.1609ZM37.2181 19.1448C37.0584 19.1448 36.8986 19.1264 36.7567 19.1448C36.6857 19.1632 36.5969 19.2368 36.5792 19.292C36.5082 19.5494 36.455 19.8253 36.4017 20.1012C36.3662 20.2299 36.4017 20.3035 36.5615 20.3035C36.8454 20.3035 37.1471 20.3218 37.431 20.3035C37.5908 20.2851 37.7505 20.2483 37.8925 20.1747C38.1054 20.0644 38.2119 19.7517 38.1587 19.4943C38.1054 19.2736 37.928 19.1448 37.6618 19.1448C37.502 19.1448 37.3601 19.1448 37.2181 19.1448Z" fill="#373334"/>
<path d="M94.7364 18.5563C94.559 19.4391 94.3815 20.3035 94.204 21.1678C94.2218 21.1862 94.2395 21.2046 94.275 21.2046C94.3815 21.1126 94.488 21.0391 94.5767 20.9287C95.0381 20.3586 95.4996 19.7885 95.9787 19.2368C96.0852 19.1081 96.1739 18.9977 96.2804 18.869C96.4224 18.6667 96.5821 18.5196 96.8483 18.5747C96.9548 18.5931 97.079 18.5747 97.221 18.5747C97.15 18.9242 97.079 19.2368 97.0258 19.5678C96.8128 20.5977 96.5999 21.6092 96.3869 22.6391C96.3691 22.6942 96.2804 22.7862 96.2272 22.7862C95.5528 22.7862 95.6415 22.8965 95.7835 22.2529C95.9077 21.6092 96.0497 20.9655 96.1917 20.3218C96.2094 20.2667 96.1739 20.1931 96.1562 20.1379C96.1029 20.1747 96.0497 20.1747 96.0142 20.2299C95.3931 20.9839 94.7719 21.7563 94.1508 22.5103C93.9378 22.7678 93.6006 22.8965 93.3167 22.8046C93.2812 22.7862 93.228 22.6942 93.2457 22.6391C93.3699 22.0138 93.5119 21.3885 93.6361 20.7632C93.7781 20.1012 93.9023 19.4575 94.0443 18.7954C94.0798 18.6483 94.1331 18.5931 94.275 18.6115C94.3815 18.5563 94.5412 18.5563 94.7364 18.5563Z" fill="#373334"/>
<path d="M78.1777 18.5563C78.0002 19.439 77.8227 20.3034 77.6453 21.1494C77.663 21.1678 77.6808 21.1862 77.7163 21.1862C77.8227 21.0942 77.9292 21.0206 78.018 20.9103C78.4794 20.3402 78.9408 19.7701 79.42 19.2184C79.5264 19.0896 79.6329 18.9609 79.7217 18.8322C79.8636 18.6482 80.0233 18.5011 80.2718 18.5379C80.396 18.5563 80.5025 18.5379 80.6622 18.5379C80.5735 18.9609 80.5025 19.3655 80.4138 19.7517C80.2186 20.6896 80.0233 21.6459 79.8281 22.5839C79.8104 22.7126 79.7571 22.731 79.6507 22.731C79.0118 22.7126 79.0828 22.8229 79.2247 22.1793C79.349 21.5356 79.4909 20.8919 79.6329 20.2482C79.6507 20.1931 79.6152 20.1195 79.6152 20.0643C79.5619 20.0827 79.5087 20.1011 79.4732 20.1563C78.8521 20.9103 78.2132 21.6827 77.6098 22.4367C77.3968 22.6942 77.0774 22.8229 76.7757 22.731C76.7402 22.7126 76.687 22.6206 76.7047 22.5655C76.8999 21.6091 77.0951 20.6528 77.3081 19.6965C77.3791 19.3839 77.4501 19.0528 77.5033 18.7402C77.5211 18.5931 77.592 18.5379 77.734 18.5379C77.8227 18.5563 77.9825 18.5563 78.1777 18.5563Z" fill="#373334"/>
<path d="M51.0607 20.2669C51.0252 21.26 50.475 22.3451 49.499 22.7129C48.7004 23.0072 47.8485 22.8233 47.3871 22.0692C47.1386 21.6462 47.0677 21.1681 47.1741 20.6715C47.2806 20.175 47.4226 19.7152 47.7243 19.3106C48.026 18.906 48.4164 18.6486 48.8956 18.5198C49.357 18.3911 49.8184 18.4279 50.2621 18.6853C50.7767 18.998 51.0784 19.6417 51.0607 20.2669ZM47.8663 21.0761C47.8663 21.5175 47.9905 21.9037 48.3987 22.106C48.8246 22.3083 49.2328 22.2531 49.5877 21.9589C49.9781 21.6646 50.1556 21.2233 50.2621 20.7451C50.3508 20.3773 50.3508 19.9911 50.1911 19.6233C49.9071 18.9612 48.9311 18.906 48.4342 19.4578C48.0437 19.9175 47.8663 20.4692 47.8663 21.0761Z" fill="#373334"/>
<path d="M19.0989 20.3029C19.0101 21.2224 18.6907 22.05 17.8566 22.565C17.0225 23.0615 15.9577 22.9696 15.4253 22.0868C15.1591 21.6454 15.1058 21.1489 15.2123 20.6523C15.3188 20.1742 15.4608 19.7144 15.7625 19.3098C16.0642 18.9052 16.4723 18.6477 16.9337 18.5374C17.3952 18.4087 17.8566 18.4454 18.2825 18.7029C18.8681 19.034 19.0634 19.6041 19.0989 20.3029ZM18.3535 20.2845C18.3535 20.2477 18.3535 20.2293 18.3535 20.1926C18.3535 19.696 18.1405 19.3282 17.7856 19.1811C17.2709 18.9788 16.7563 19.1627 16.4723 19.4753C16.0642 19.9351 15.8867 20.5052 15.8867 21.1489C15.9044 21.5535 16.0109 21.9029 16.3836 22.0868C16.774 22.2891 17.1467 22.2707 17.5016 22.0316C18.1228 21.6087 18.3003 20.9834 18.3535 20.2845Z" fill="#373334"/>
<path d="M34.7163 20.3029C34.6276 21.2224 34.3081 22.05 33.474 22.565C32.6399 23.0615 31.5751 22.9696 31.0427 22.0868C30.7765 21.6454 30.7233 21.1489 30.8297 20.6523C30.9362 20.1742 31.0782 19.7144 31.3799 19.3098C31.6816 18.9052 32.0898 18.6477 32.5512 18.5374C33.0126 18.4087 33.474 18.4454 33.8999 18.7029C34.4856 19.034 34.6985 19.6041 34.7163 20.3029ZM31.5219 21.0569C31.5219 21.5167 31.6461 21.8293 31.8945 22.0132C32.3382 22.3259 32.9239 22.2891 33.3143 21.9029C33.7935 21.4247 33.9887 20.8362 33.9709 20.1742C33.9709 19.696 33.7402 19.3282 33.3853 19.1995C32.8529 18.9788 32.356 19.1995 32.0898 19.4937C31.6993 19.9167 31.5219 20.4684 31.5219 21.0569Z" fill="#373334"/>
<path d="M3.53568 22.2161C4.05034 22.1793 4.13907 22.1057 4.24555 21.5908C4.44077 20.6529 4.63598 19.6966 4.84894 18.7586C4.86669 18.6851 4.95543 18.5563 5.00867 18.5563C5.86051 18.5379 6.73011 18.5563 7.61745 18.5563C7.52871 18.9793 7.45773 19.3655 7.36899 19.7701C7.17378 20.708 6.97856 21.6644 6.78335 22.6023C6.74785 22.731 6.71236 22.7678 6.58813 22.7678C6.44616 22.7678 6.32193 22.7678 6.17995 22.7678C6.03798 22.7678 6.02023 22.7126 6.03798 22.5839C6.25094 21.554 6.4639 20.5241 6.67687 19.4943C6.74785 19.2 6.71236 19.1632 6.42841 19.1632C6.17996 19.1632 5.94925 19.1632 5.70079 19.1632C5.54107 19.1632 5.47008 19.2 5.43459 19.3839C5.25712 20.2667 5.06191 21.1678 4.84894 22.0322C4.68922 22.6207 4.33429 22.8782 3.81963 22.8598C3.71315 22.8598 3.60667 22.8414 3.51793 22.8046C3.48244 22.7862 3.4292 22.6942 3.4292 22.6575C3.46469 22.4919 3.51793 22.3632 3.53568 22.2161Z" fill="#373334"/>
<path d="M68.3468 18.5563C68.2403 19.0529 68.1516 19.531 68.0628 20.0092C67.8854 20.8736 67.6902 21.7379 67.5127 22.6023C67.4949 22.731 67.4417 22.7494 67.3352 22.7494C67.1932 22.7494 67.069 22.7494 66.927 22.7494C66.7851 22.7494 66.7496 22.6942 66.7851 22.5655C66.998 21.5356 67.211 20.5058 67.424 19.4759C67.4949 19.1632 67.4772 19.1448 67.1578 19.1448C66.9093 19.1448 66.6786 19.1448 66.4301 19.1448C66.2704 19.1448 66.2172 19.2 66.1817 19.3655C65.9865 20.2667 65.8267 21.1678 65.5783 22.0322C65.4008 22.731 64.9394 22.9517 64.2473 22.8046C64.2118 22.7862 64.1763 22.7678 64.123 22.7494C64.1585 22.5839 64.2118 22.4 64.2473 22.2345C64.7797 22.1793 64.8862 22.0874 64.9926 21.4989C65.1879 20.5793 65.3653 19.6414 65.5605 18.7219C65.5783 18.6483 65.667 18.5563 65.738 18.5563C66.5899 18.5563 67.4417 18.5563 68.3468 18.5563Z" fill="#373334"/>
<path d="M90.5653 18.5561C90.4588 19.1262 90.3523 19.6411 90.2281 20.2112C90.2991 20.2296 90.3701 20.2296 90.4233 20.2296C90.867 20.2296 91.3106 20.2296 91.7721 20.2296C91.914 20.2296 91.985 20.1745 92.0028 20.0457C92.0915 19.6044 92.1802 19.1814 92.269 18.74C92.2867 18.6113 92.34 18.5377 92.4819 18.5561C92.6594 18.5561 92.8369 18.5561 93.0498 18.5561C92.9611 18.9791 92.8901 19.3653 92.8014 19.7699C92.6062 20.7078 92.4109 21.6641 92.2157 22.602C92.198 22.7308 92.1447 22.7676 92.0205 22.7676C91.8785 22.7676 91.7543 22.7676 91.6123 22.7676C91.4704 22.7676 91.4349 22.7124 91.4704 22.5836C91.5768 22.0871 91.6833 21.6089 91.7721 21.1124C91.8253 20.8733 91.7898 20.8365 91.5768 20.8365C91.1509 20.8365 90.7427 20.8365 90.3168 20.8365C90.1571 20.8365 90.0861 20.8733 90.0506 21.0388C89.9441 21.5722 89.8199 22.0871 89.7312 22.6204C89.7134 22.7492 89.6602 22.7859 89.5537 22.7676C89.4827 22.7676 89.4295 22.7676 89.3585 22.7676C88.8616 22.7676 88.9503 22.7676 89.0391 22.363C89.2698 21.1676 89.536 19.9722 89.7844 18.7768C89.8199 18.6113 89.8731 18.5561 90.0329 18.5561C90.1926 18.5561 90.3701 18.5561 90.5653 18.5561Z" fill="#373334"/>
<path d="M85.9149 22.1793C86.7313 22.1793 87.4766 22.1793 88.2575 22.1793C88.222 22.3632 88.1865 22.5287 88.1333 22.6759C88.1155 22.731 88.0268 22.7678 87.9736 22.7678C87.0685 22.7678 86.1634 22.7678 85.2583 22.7678C85.1163 22.7678 85.0808 22.7126 85.1163 22.5655C85.3825 21.2782 85.6487 20.0092 85.9149 18.7218C85.9327 18.6483 86.0392 18.5563 86.0924 18.5563C86.9442 18.5379 87.8138 18.5563 88.6657 18.5563C88.7899 18.5563 88.8254 18.5747 88.7899 18.7218C88.6657 19.2368 88.7367 19.1448 88.293 19.1448C87.7783 19.1448 87.2637 19.1448 86.7668 19.1448C86.607 19.1448 86.5361 19.2 86.5183 19.3655C86.4828 19.6598 86.4118 19.954 86.3408 20.2667C86.4473 20.2667 86.5361 20.2851 86.6248 20.2851C87.1572 20.2851 87.6719 20.2851 88.2043 20.2851C88.4705 20.2851 88.4705 20.2851 88.3995 20.5609V20.5793C88.3817 20.8184 88.2575 20.892 88.009 20.892C87.4766 20.8736 86.9442 20.892 86.4118 20.892C86.2699 20.892 86.1989 20.9287 86.1634 21.0943C86.0746 21.4253 85.9859 21.7747 85.9149 22.1793Z" fill="#373334"/>
<path d="M61.7811 20.2666C61.9053 20.2666 61.9763 20.285 62.0651 20.285C62.6152 20.285 63.1654 20.285 63.6978 20.285C63.8397 20.285 63.893 20.3034 63.8397 20.4689C63.7155 20.9103 63.822 20.8735 63.3428 20.8735C62.8459 20.8735 62.3668 20.8919 61.8698 20.8735C61.6746 20.8735 61.6036 20.947 61.5681 21.1125C61.5149 21.462 61.4439 21.793 61.3729 22.1608C61.4972 22.1608 61.5681 22.1792 61.6569 22.1792C62.2603 22.1792 62.8637 22.1792 63.4671 22.1792C63.6445 22.1792 63.7155 22.1976 63.6445 22.4183C63.5203 22.8045 63.6268 22.7861 63.2009 22.7861C62.3668 22.7861 61.5327 22.7861 60.7163 22.7861C60.5566 22.7861 60.5033 22.7493 60.5388 22.5654C60.805 21.2965 61.0712 20.0275 61.3374 18.7401C61.3552 18.685 61.4439 18.593 61.4972 18.593C62.3845 18.593 63.2718 18.593 64.1592 18.593C64.1769 18.593 64.1947 18.6114 64.2479 18.6298C64.2124 18.7769 64.1947 18.9424 64.1414 19.0896C64.1237 19.1447 63.9995 19.1815 63.9285 19.1815C63.3606 19.1815 62.8104 19.1999 62.2425 19.1815C62.0473 19.1815 61.9586 19.2183 61.9231 19.4574C61.9231 19.6781 61.8521 19.9539 61.7811 20.2666Z" fill="#373334"/>
<path d="M55.1962 18.5931C55.1607 18.7587 55.1429 18.9242 55.0719 19.0529C55.0542 19.1081 54.93 19.1449 54.859 19.1449C54.2911 19.1449 53.7409 19.1632 53.173 19.1449C52.9778 19.1449 52.8891 19.1816 52.8713 19.4023C52.8536 19.623 52.8004 19.8437 52.7294 20.0644C52.6761 20.2483 52.7471 20.2851 52.9068 20.2851C53.457 20.2851 54.0071 20.2851 54.5395 20.2851C54.6105 20.2851 54.6993 20.2851 54.8057 20.2851C54.7703 20.469 54.7348 20.6345 54.6815 20.7816C54.6638 20.8368 54.5395 20.8736 54.4686 20.8736C53.9007 20.8736 53.3505 20.8736 52.7826 20.8736C52.6229 20.8736 52.5342 20.9104 52.4987 21.0943C52.4454 21.3885 52.3744 21.6828 52.3212 21.9954C52.2857 22.1609 52.3744 22.1977 52.5164 22.1977C53.1375 22.1977 53.7587 22.1977 54.3621 22.1977C54.4331 22.1977 54.5218 22.1977 54.6283 22.1977C54.5928 22.3816 54.5573 22.5471 54.5041 22.6943C54.4863 22.7494 54.3976 22.7862 54.3443 22.7862C53.4215 22.7862 52.5164 22.7862 51.5936 22.7862C51.4516 22.7862 51.4339 22.7127 51.4693 22.5839C51.6823 21.554 51.913 20.5058 52.126 19.4759C52.1792 19.2368 52.2147 18.9793 52.268 18.7587C52.2857 18.6851 52.3744 18.5931 52.4454 18.5931C53.315 18.5747 54.1846 18.5931 55.0542 18.5931C55.1074 18.5564 55.1429 18.5747 55.1962 18.5931Z" fill="#373334"/>
<path d="M69.3938 22.1609C69.873 22.1609 70.2989 22.1609 70.7248 22.1609C70.991 22.1609 71.2572 22.1609 71.5412 22.1609C71.6654 22.1609 71.7364 22.1793 71.6832 22.3448C71.5589 22.8046 71.6654 22.7494 71.1863 22.7494C70.3699 22.7494 69.5713 22.7494 68.7549 22.7494C68.5597 22.7494 68.5065 22.7126 68.5597 22.492C68.8259 21.223 69.0744 19.954 69.3406 18.7035C69.3583 18.6483 69.4471 18.5563 69.5003 18.5563C70.3877 18.5563 71.275 18.5563 72.1623 18.5563C72.1801 18.5563 72.1978 18.5747 72.2511 18.5931C72.2156 18.7586 72.1801 18.9058 72.1268 19.0713C72.1091 19.1264 72.0026 19.1448 71.9316 19.1448C71.3637 19.1448 70.8136 19.1632 70.2457 19.1448C70.0505 19.1448 69.9617 19.1816 69.9262 19.4207C69.8907 19.6966 69.8198 19.9724 69.7488 20.2667C69.873 20.2667 69.944 20.2851 70.0327 20.2851C70.5829 20.2851 71.133 20.2851 71.6654 20.2851C71.8074 20.2851 71.8606 20.3035 71.8074 20.469C71.6832 20.9103 71.7896 20.8736 71.3105 20.8736C70.8136 20.8736 70.3344 20.892 69.8375 20.8736C69.6423 20.8736 69.5713 20.9471 69.5358 21.1126C69.5358 21.4437 69.4648 21.7931 69.3938 22.1609Z" fill="#373334"/>
<path d="M101.142 18.5931C101.107 18.7403 101.089 18.9058 101.036 19.0161C101 19.0713 100.894 19.1265 100.823 19.1265C100.255 19.1449 99.669 19.1449 99.1011 19.1265C98.9414 19.1265 98.8527 19.1632 98.8349 19.3471C98.7994 19.5862 98.7462 19.8253 98.6929 20.046C98.6752 20.1012 98.6752 20.1563 98.6752 20.2483C98.8527 20.2483 99.0124 20.2483 99.1544 20.2483C99.6335 20.2483 100.113 20.2483 100.574 20.2483C100.716 20.2483 100.769 20.2667 100.716 20.4322C100.592 20.8736 100.698 20.8368 100.219 20.8368C99.7222 20.8368 99.2253 20.8368 98.7284 20.8368C98.5864 20.8368 98.4977 20.8736 98.4622 21.0391C98.409 21.3517 98.338 21.646 98.267 21.9586C98.2493 22.0138 98.267 22.0506 98.2848 22.1241C98.3735 22.1241 98.48 22.1425 98.5687 22.1425C99.1721 22.1425 99.7755 22.1425 100.379 22.1425C100.539 22.1425 100.627 22.1793 100.539 22.3448C100.521 22.4 100.503 22.4736 100.485 22.5287C100.468 22.6759 100.397 22.731 100.255 22.731C99.3673 22.731 98.4622 22.731 97.5749 22.731C97.4152 22.731 97.3797 22.6943 97.4152 22.5287C97.6814 21.2598 97.9476 19.9908 98.2138 18.7035C98.2315 18.6299 98.3202 18.538 98.3735 18.538C99.2608 18.5196 100.148 18.538 101.036 18.538C101.071 18.5563 101.089 18.5747 101.142 18.5931Z" fill="#373334"/>
<path d="M10.4558 21.7931C9.90568 21.7931 9.37327 21.7931 8.84087 21.7931C8.78763 21.7931 8.71664 21.8483 8.68115 21.9035C8.53917 22.1426 8.43269 22.3816 8.29072 22.6023C8.25523 22.6759 8.14874 22.7311 8.06001 22.7495C7.88254 22.7678 7.70507 22.7495 7.47437 22.7495C7.72282 22.2897 7.93578 21.8483 8.16649 21.4253C8.43269 20.9104 8.71664 20.3954 9.00059 19.8805C9.21355 19.4759 9.42651 19.0713 9.65722 18.6851C9.69272 18.6299 9.78145 18.5748 9.85244 18.5748C10.0654 18.5564 10.2606 18.5748 10.4736 18.5748C10.5801 18.5748 10.6333 18.5932 10.651 18.7219C10.8285 19.9173 11.0237 21.1127 11.2012 22.3081C11.2189 22.4552 11.2367 22.6023 11.2722 22.7678C11.077 22.7678 10.8818 22.7862 10.7043 22.7495C10.6333 22.7311 10.5623 22.6207 10.5446 22.5472C10.5091 22.3081 10.4913 22.069 10.4558 21.7931ZM9.12482 21.2046C9.46201 21.2046 9.78145 21.2046 10.0831 21.2046C10.3493 21.2046 10.3848 21.1495 10.3493 20.8736C10.2784 20.4138 10.2074 19.9541 10.1364 19.4943C10.1364 19.4575 10.1009 19.4207 10.0831 19.3656C10.0477 19.4023 9.99441 19.4207 9.97667 19.4575C9.71046 19.9541 9.44426 20.4506 9.19581 20.9472C9.14257 21.0207 9.14257 21.0943 9.12482 21.2046Z" fill="#373334"/>
<path d="M46.2515 22.7493C46.0207 22.7493 45.8078 22.7493 45.6126 22.7493C45.5593 22.7493 45.5061 22.6757 45.4883 22.6206C45.3641 22.1976 45.2576 21.7746 45.1334 21.37C45.0802 21.1677 45.0269 20.9838 44.7962 20.8918C44.601 20.8183 44.5123 20.8551 44.459 21.0758C44.3525 21.5907 44.2283 22.0872 44.1396 22.6022C44.1218 22.7493 44.0509 22.7677 43.9444 22.7677C43.8734 22.7677 43.8201 22.7677 43.7492 22.7677C43.3587 22.7677 43.3587 22.7677 43.4475 22.3631C43.6959 21.1677 43.9444 19.9539 44.1928 18.7585C44.2106 18.6298 44.2638 18.5562 44.4058 18.5746C44.5833 18.5746 44.7607 18.5746 44.9737 18.5746C44.9027 18.8873 44.8495 19.1815 44.7962 19.4758C44.743 19.6964 44.7075 19.9171 44.6542 20.1378C44.6188 20.3401 44.6897 20.4321 44.885 20.3585C45.0269 20.3033 45.1689 20.2114 45.2576 20.101C45.4883 19.7516 45.7013 19.3838 45.932 19.0344C46.1982 18.6482 46.5709 18.5194 47.0501 18.5746C46.9968 18.7401 46.9613 18.8873 46.9081 19.016C46.8903 19.0528 46.8016 19.1079 46.7484 19.0896C46.5177 19.0712 46.4112 19.1999 46.3047 19.3838C46.145 19.6597 45.9675 19.9355 45.7723 20.193C45.6836 20.3217 45.5238 20.4137 45.3819 20.4872C45.2754 20.5424 45.2576 20.5976 45.3464 20.6528C45.7191 20.8367 45.8433 21.1861 45.932 21.5723C46.0385 21.9585 46.145 22.3447 46.2515 22.7493Z" fill="#373334"/>
<path d="M26.9791 19.7149C26.7307 19.7333 26.5177 19.7701 26.287 19.7885C26.2693 19.7517 26.2338 19.7333 26.216 19.6965C26.1273 19.1264 25.5416 19.0344 25.1157 19.1448C24.672 19.2551 24.4058 19.5678 24.2284 19.9907C24.0332 20.4689 23.9444 20.9471 24.0509 21.462C24.1219 21.8482 24.3349 22.1425 24.7253 22.216C25.1512 22.2896 25.5239 22.1609 25.7901 21.7746C25.8788 21.6643 25.9321 21.5172 26.0208 21.3701C26.2338 21.4068 26.4645 21.4436 26.6952 21.4804C26.3225 22.6022 25.1335 23.1723 24.1396 22.7126C23.6782 22.4919 23.412 22.0873 23.3233 21.5724C23.1813 20.7816 23.341 20.0459 23.767 19.3839C24.2639 18.6114 25.3464 18.262 26.1628 18.6298C26.6242 18.8137 26.8904 19.1816 26.9791 19.7149Z" fill="#373334"/>
<path d="M43.0568 19.7149C42.8439 19.7333 42.6309 19.7701 42.418 19.7885C42.3825 19.7885 42.3292 19.7333 42.3292 19.6965C42.2582 19.4023 42.1163 19.2184 41.8323 19.1448C41.5129 19.0712 41.2289 19.0896 40.9272 19.2551C40.4303 19.531 40.2706 20.0276 40.1641 20.5425C40.1109 20.8367 40.1109 21.1678 40.1641 21.4804C40.2174 21.8666 40.4481 22.1425 40.8207 22.2161C41.2289 22.308 41.6016 22.1609 41.8678 21.8115C41.9565 21.7011 42.0098 21.554 42.0985 21.3885C42.3115 21.4253 42.5422 21.462 42.7729 21.4988C42.418 22.6206 41.1757 23.2091 40.2174 22.731C39.7737 22.5103 39.5075 22.1057 39.4187 21.6092C39.2768 20.8184 39.4365 20.0827 39.8624 19.4207C40.3593 18.6482 41.4241 18.2988 42.2582 18.6666C42.6842 18.777 43.0213 19.2551 43.0568 19.7149Z" fill="#373334"/>
<path d="M0.58917 19.4204C0.784384 18.9055 1.15707 18.648 1.60074 18.5193C2.06216 18.3905 2.50583 18.4825 2.914 18.7399C3.53514 19.1262 3.55289 19.9721 2.9495 20.3951C2.86076 20.4503 2.78977 20.5055 2.70104 20.5422C2.54132 20.6158 2.55907 20.6894 2.68329 20.7629C3.39317 21.2043 3.2157 22.0871 2.63005 22.4917C1.93793 22.9514 1.19256 22.9882 0.464942 22.5836C0.269727 22.4733 0.1455 22.2158 0.00352505 22.0135C-0.0142218 21.9951 0.0390186 21.8848 0.0745122 21.8664C0.234233 21.7928 0.411702 21.756 0.571423 21.7192C0.606917 21.7192 0.695651 21.7744 0.731144 21.8296C0.997346 22.271 1.79595 22.3813 2.18638 22.0319C2.3816 21.848 2.45258 21.5721 2.3816 21.333C2.29286 21.0388 2.06216 20.9652 1.79595 20.9284C1.72497 20.9101 1.63623 20.9284 1.52975 20.9284C1.56524 20.7261 1.60074 20.5606 1.63623 20.3767C1.65398 20.3399 1.74271 20.3032 1.79595 20.2848C1.93793 20.248 2.1154 20.2664 2.25737 20.2112C2.55907 20.1009 2.68329 19.8434 2.6478 19.5124C2.63005 19.3101 2.45258 19.1262 2.20413 19.1078C1.86694 19.071 1.512 19.0894 1.31679 19.4572C1.29904 19.494 1.22806 19.5307 1.17481 19.5307C1.01509 19.5124 0.819878 19.4572 0.58917 19.4204Z" fill="#373334"/>
<path d="M19.3108 22.7862C19.3108 22.731 19.3285 22.6759 19.3285 22.6391C19.3463 22.2713 19.3463 22.2529 19.7012 22.2713C20.0739 22.2896 20.5353 21.7747 20.3933 21.3333C20.1449 20.5241 19.9319 19.6782 19.7012 18.8506C19.6835 18.7586 19.6657 18.6667 19.6302 18.5563C19.8609 18.5563 20.0562 18.5379 20.2514 18.5563C20.3046 18.5563 20.3933 18.6483 20.3933 18.7035C20.5353 19.3287 20.6595 19.9356 20.7838 20.5609C20.8015 20.6529 20.8548 20.7264 20.908 20.8C20.979 20.7448 21.0677 20.708 21.121 20.6345C21.5646 19.9908 22.0083 19.3471 22.452 18.7218C22.5052 18.6483 22.6294 18.5931 22.7182 18.5747C22.8956 18.5563 23.0909 18.5747 23.2861 18.5747C23.2861 18.6115 23.2861 18.6483 23.2683 18.6667C22.3455 19.9172 21.4404 21.1862 20.5176 22.4368C20.2336 22.8414 19.8077 22.9333 19.3108 22.7862Z" fill="#373334"/>
<path d="M27.971 22.7494C28.2195 21.5356 28.4679 20.3586 28.6987 19.1448C28.2727 19.1448 27.9 19.1448 27.4741 19.1448C27.5096 18.9425 27.5451 18.777 27.5806 18.6299C27.5983 18.5931 27.6693 18.5563 27.7048 18.5563C28.7164 18.5563 29.7102 18.5563 30.7573 18.5563C30.7218 18.7402 30.704 18.8874 30.6508 19.0345C30.6331 19.0897 30.5266 19.1448 30.4556 19.1448C30.1184 19.1632 29.7812 19.1448 29.4263 19.1448C29.2311 20.1012 29.0358 21.0207 28.8584 21.9586C28.8051 22.1793 28.7874 22.4 28.7164 22.6207C28.6987 22.6759 28.6099 22.7494 28.5567 22.7494C28.397 22.7678 28.2017 22.7494 27.971 22.7494Z" fill="#373334"/>
<path d="M58.6027 19.1448C58.159 19.1448 57.7864 19.1448 57.3782 19.1448C57.4137 18.9609 57.4492 18.7954 57.4847 18.6299C57.4847 18.5931 57.5556 18.5563 57.5911 18.5563C58.6027 18.5563 59.6143 18.5563 60.6613 18.5563C60.6258 18.7402 60.6081 18.8874 60.5549 19.0345C60.5371 19.0897 60.4306 19.1448 60.3596 19.1448C60.0225 19.1632 59.6853 19.1448 59.3303 19.1448C59.0996 20.3035 58.8512 21.4253 58.6382 22.5655C58.6027 22.7126 58.5672 22.7678 58.4252 22.7678C58.2478 22.7678 58.0703 22.7678 57.8573 22.7678C58.1235 21.554 58.3543 20.377 58.6027 19.1448Z" fill="#373334"/>
<path d="M15.1407 18.593C15.1052 18.7217 15.0874 18.8873 15.0519 19.0344C15.0342 19.0896 14.9454 19.1263 14.8745 19.1263C14.6083 19.1447 14.342 19.1263 14.0581 19.1263C13.9871 19.1263 13.8984 19.1263 13.8274 19.1447C13.5967 20.285 13.3482 21.4252 13.1353 22.547C13.0998 22.6941 13.0643 22.7493 12.9223 22.7493C12.7448 22.7493 12.5674 22.7493 12.3722 22.7493C12.4609 22.3079 12.5496 21.885 12.6384 21.462C12.7803 20.7447 12.9401 20.0459 13.082 19.3286C13.1175 19.1999 13.0643 19.1263 12.9223 19.1263C12.5851 19.1263 12.2657 19.1263 11.8752 19.1263C11.9107 18.9424 11.9285 18.7953 11.9817 18.6298C11.9995 18.593 12.0705 18.5378 12.1237 18.5378C13.1175 18.5378 14.1291 18.5378 15.1229 18.5378C15.1052 18.5562 15.1052 18.5746 15.1407 18.593Z" fill="#373334"/>
</svg>
