<svg width="20" height="20" viewBox="0 0 20 20" fill="none" xmlns="http://www.w3.org/2000/svg">
<g clip-path="url(#clip0_1801_521)">
<path d="M4.25096 4.13824L2.99572 2.88305C2.76689 2.65422 2.76689 2.28325 2.99572 2.05442C3.22451 1.82559 3.59553 1.82563 3.82436 2.05442L5.0796 3.30961C5.30843 3.5384 5.30843 3.90942 5.0796 4.13824C4.85085 4.36703 4.47983 4.36711 4.25096 4.13824Z" fill="#9F0023"/>
<path d="M1.52724 6.90363H2.78247C3.10606 6.90363 3.36841 7.16597 3.36841 7.48956C3.36841 7.81316 3.10606 8.0755 2.78247 8.0755H1.52724C1.20364 8.0755 0.941299 7.81316 0.941299 7.48956C0.941299 7.16597 1.20364 6.90363 1.52724 6.90363Z" fill="#9F0023"/>
<path d="M8.43115 2.42707C8.10756 2.42707 7.84521 2.16473 7.84521 1.84113V0.585938C7.84521 0.262344 8.10756 0 8.43115 0C8.75475 0 9.01709 0.262344 9.01709 0.585938V1.84113C9.01709 2.16473 8.75475 2.42707 8.43115 2.42707Z" fill="#9F0023"/>
<path d="M18.887 14.6066C19.1157 14.8351 19.1159 15.2064 18.887 15.4352L16.3766 17.9456C16.1479 18.1744 15.7769 18.1745 15.548 17.9456L14.5661 16.9638L17.9051 13.6248L18.887 14.6066Z" fill="#9F0023"/>
<path d="M8.74235 15.0797L12.8567 17.0158L10.0441 19.8284C9.81532 20.0572 9.44427 20.0573 9.21544 19.8284L7.01884 17.6318C6.79001 17.403 6.79001 17.032 7.01884 16.8032L8.74235 15.0797Z" fill="#9F0023"/>
<path d="M11.1549 2.05449C11.2898 1.91956 11.482 1.85882 11.6699 1.89159C11.8579 1.92441 12.0181 2.04667 12.0994 2.21933L17.0767 12.796L13.7376 16.1351L3.16088 11.1578C2.98822 11.0766 2.86596 10.9163 2.83315 10.7284C2.80033 10.5404 2.86112 10.3482 2.99604 10.2133L11.1549 2.05449Z" fill="#9F0023"/>
</g>
<defs>
<clipPath id="clip0_1801_521">
<rect width="20" height="20" fill="white" transform="matrix(-1 0 0 1 20 0)"/>
</clipPath>
</defs>
</svg>
