<svg width="16" height="17" viewBox="0 0 16 17" fill="none" xmlns="http://www.w3.org/2000/svg">
<path d="M14.4101 13.1473L14.4101 13.1473C15.1184 14.1708 14.7891 15.3999 13.6639 15.9323L14.4101 13.1473ZM14.4101 13.1473L7.40104 3.018L7.40089 3.0178M14.4101 13.1473L7.40089 3.0178M7.40089 3.0178C7.2224 2.75958 7.00625 2.52428 6.75879 2.31739C6.95117 2.4914 7.12333 2.68617 7.27096 2.89946L7.27099 2.89951M7.40089 3.0178L7.27099 2.89951M7.27099 2.89951L14.28 13.0288L14.2801 13.0289M7.27099 2.89951L14.2801 13.0289M14.2801 13.0289C15.0085 14.0825 14.6497 15.4217 13.4921 15.9698L13.4916 15.97M14.2801 13.0289L13.4916 15.97M13.4916 15.97C13.2964 16.0622 13.0902 16.1237 12.8802 16.158M13.4916 15.97L12.8802 16.158M12.8802 16.158C13.1569 16.1231 13.4214 16.047 13.6639 15.9324L12.8802 16.158ZM2.55038 1.71812L2.55012 1.71825C1.77095 2.08675 1.25561 2.69349 1.06231 3.41488C0.868916 4.13664 1.01157 4.91955 1.50187 5.62763L1.50194 5.62773L7.0198 13.6007C7.02725 13.6115 7.04934 13.632 7.08958 13.6427C7.09261 13.6436 7.09558 13.6443 7.09848 13.6449L1.63223 5.74627C1.63222 5.74626 1.63221 5.74625 1.63221 5.74624C1.15233 5.05291 0.983696 4.23467 1.19391 3.45014C1.40416 2.6655 1.96018 2.04114 2.72204 1.68065L2.72212 1.68061C2.95667 1.56968 3.2032 1.48708 3.45686 1.43257C3.13904 1.48801 2.83413 1.58372 2.55038 1.71812ZM10.2691 15.1065L10.2689 15.1062L5.56249 8.30447C5.35977 8.01152 5.27811 7.64175 5.37309 7.28729C5.46894 6.92957 5.72137 6.65481 6.04623 6.50117C6.13022 6.46144 6.21734 6.4306 6.30625 6.40833C6.15635 6.43141 6.0105 6.47448 5.87394 6.53896C5.53155 6.70096 5.32011 6.95873 5.24151 7.25207C5.16446 7.53965 5.22131 7.88102 5.4323 8.18592L5.43231 8.18593L10.1387 14.9878C10.2914 15.2084 10.4825 15.4065 10.7048 15.5752C10.54 15.4404 10.3921 15.284 10.2691 15.1065ZM8.05801 7.12396C7.97214 6.99988 7.86744 6.88966 7.74917 6.79474C7.81508 6.85861 7.87517 6.92907 7.92811 7.0058C7.92816 7.00586 7.9282 7.00592 7.92824 7.00598L11.1421 11.6508L11.1422 11.651C11.1495 11.6616 11.1715 11.682 11.2117 11.6928C11.2148 11.6936 11.2177 11.6943 11.2207 11.695L8.05801 7.12396Z" fill="white" stroke="white"/>
</svg>
