<svg width="203" height="159" viewBox="0 0 203 159" fill="none" xmlns="http://www.w3.org/2000/svg">
<g clip-path="url(#clip0_9_98)">
<path d="M171.701 27.1568C172.447 25.8008 178.34 22.2084 180.86 21.8342C180.266 27.327 176.438 31.4066 176.438 31.4066C173.021 29.6286 171.701 27.1568 171.701 27.1568Z" fill="#AD5F1F"/>
<path d="M187.036 72.889C188.575 73.0816 194.074 77.2401 195.341 79.4464C190.004 80.9087 184.806 78.8472 184.806 78.8472C185.221 75.0181 187.036 72.889 187.036 72.889Z" fill="#AD5F1F"/>
<path d="M161.78 103.376C162.915 104.415 164.975 110.998 164.725 113.533C159.531 111.632 156.494 106.94 156.494 106.94C159.063 104.055 161.78 103.376 161.78 103.376Z" fill="#AD5F1F"/>
<path d="M134.049 18.0269C135.222 14.6048 140.225 9.31244 140.225 9.31244C140.997 13.0607 140.883 16.9378 139.892 20.636C134.041 19.7657 134.049 18.0269 134.049 18.0269Z" fill="#AD5F1F"/>
<path d="M137.145 102.188C139.546 105.266 142.919 107.443 146.717 108.366C150.514 109.289 154.514 108.905 158.068 107.275C161.622 105.645 164.521 102.865 166.296 99.3858C168.071 95.9067 168.618 91.9321 167.848 88.1064C172.157 88.6997 176.534 87.6706 180.127 85.2193C183.721 82.768 186.273 79.0701 187.287 74.8457C188.301 70.6213 187.704 66.1729 185.612 62.3667C183.521 58.5606 180.085 55.6692 175.973 54.2557C179.027 50.678 180.621 46.0847 180.438 41.3898C180.255 36.6949 178.308 32.2425 174.985 28.9186C171.662 25.5946 167.206 23.6427 162.504 23.4513C157.801 23.2599 153.197 24.8429 149.608 27.8855C148.295 24.454 145.861 21.5659 142.7 19.6879C139.538 17.8098 135.833 17.0516 132.185 17.5357C128.536 18.0198 125.156 19.7179 122.591 22.3557C120.026 24.9935 118.427 28.4168 118.05 32.0723C115.429 38.009 113.045 37.6961 96.9418 39.7419C69.8452 43.1877 7.51137 52.1664 -29.5141 60.7459L-7.91283 141.363C63.0062 119.341 124.177 92.2403 129.043 91.5843C132.669 91.1046 132.068 96.4678 137.145 102.188Z" fill="#F2AE72"/>
<path d="M137.145 102.188C139.546 105.266 142.919 107.443 146.717 108.366C150.514 109.289 154.514 108.905 158.068 107.275C161.622 105.645 164.521 102.865 166.296 99.3858C168.071 95.9066 168.618 91.9321 167.848 88.1063C172.157 88.6997 176.534 87.6705 180.127 85.2192C183.721 82.7679 186.273 79.07 187.287 74.8456C188.301 70.6213 187.704 66.1728 185.612 62.3667C183.521 58.5605 180.085 55.6692 175.973 54.2556C179.027 50.6779 180.621 46.0846 180.438 41.3897C180.255 36.6948 178.308 32.2425 174.985 28.9185C171.662 25.5946 167.206 23.6427 162.504 23.4513C157.801 23.2598 153.197 24.8429 149.608 27.8854C148.295 24.454 145.861 21.5659 142.7 19.6878C139.538 17.8098 135.834 17.0515 132.185 17.5356C128.536 18.0197 125.156 19.7179 122.591 22.3557C120.026 24.9935 118.427 28.4167 118.05 32.0723C115.429 38.0089 113.045 37.6961 96.9419 39.7418C89.4925 40.6894 79.3733 42.0567 67.841 43.7193C63.1609 69.5472 75.7745 96.0856 83.4107 109.204C109.246 99.2116 126.548 91.9196 129.043 91.5842C132.67 91.1046 132.068 96.4677 137.145 102.188Z" fill="#F4E9E3"/>
<path d="M151.167 57.5472C153.784 67.3118 140.857 79.765 136.178 76.8573C129.224 72.5375 134.409 68.745 132.933 63.237C131.457 57.7289 125.038 55.2147 127.696 49.2119C130.47 42.9684 148.685 48.2843 151.167 57.5472Z" fill="#F29E57"/>
<path d="M136.269 35.5109C135.623 35.684 134.94 35.662 134.307 35.4477C133.674 35.2334 133.119 34.8363 132.712 34.3068C132.305 33.7772 132.064 33.1389 132.021 32.4726C131.977 31.8063 132.133 31.142 132.468 30.5635C132.802 29.9851 133.301 29.5185 133.901 29.2229C134.501 28.9273 135.175 28.8159 135.839 28.9027C136.502 28.9896 137.124 29.2708 137.626 29.7108C138.129 30.1508 138.49 30.7299 138.662 31.3748C138.894 32.2396 138.772 33.1612 138.323 33.9369C137.875 34.7125 137.136 35.2787 136.269 35.5109Z" fill="#F29E57"/>
<path d="M160.863 47.2204C160.216 47.3935 159.534 47.3715 158.9 47.1572C158.267 46.9428 157.712 46.5458 157.305 46.0162C156.898 45.4867 156.658 44.8484 156.614 44.1821C156.571 43.5158 156.726 42.8514 157.061 42.273C157.396 41.6945 157.895 41.228 158.495 40.9324C159.095 40.6368 159.769 40.5253 160.432 40.6122C161.095 40.699 161.717 40.9802 162.22 41.4203C162.723 41.8603 163.083 42.4394 163.256 43.0843C163.488 43.9491 163.366 44.8707 162.917 45.6463C162.468 46.422 161.729 46.9882 160.863 47.2204Z" fill="#F29E57"/>
<path d="M167.505 74.461C166.858 74.6342 166.176 74.6122 165.542 74.3978C164.909 74.1835 164.354 73.7864 163.947 73.2569C163.54 72.7273 163.3 72.089 163.256 71.4228C163.213 70.7565 163.368 70.0921 163.703 69.5137C164.038 68.9352 164.537 68.4687 165.137 68.1731C165.737 67.8774 166.411 67.766 167.074 67.8529C167.737 67.9397 168.359 68.2209 168.862 68.6609C169.364 69.101 169.725 69.6801 169.898 70.325C170.13 71.1898 170.008 72.1114 169.559 72.887C169.11 73.6627 168.371 74.2289 167.505 74.461Z" fill="#F29E57"/>
<path d="M149.749 94.784C149.103 94.9571 148.42 94.9351 147.787 94.7208C147.153 94.5065 146.598 94.1094 146.191 93.5798C145.784 93.0503 145.544 92.412 145.501 91.7457C145.457 91.0794 145.613 90.415 145.947 89.8366C146.282 89.2581 146.781 88.7916 147.381 88.496C147.981 88.2004 148.655 88.089 149.318 88.1758C149.981 88.2626 150.603 88.5439 151.106 88.9839C151.609 89.4239 151.969 90.003 152.142 90.6479C152.374 91.5127 152.252 92.4343 151.803 93.21C151.354 93.9856 150.615 94.5518 149.749 94.784Z" fill="#F29E57"/>
<g style="mix-blend-mode:multiply">
<g style="mix-blend-mode:multiply">
<path d="M113.163 67.0772C112.382 64.2369 112.058 61.2902 112.203 58.3475C112.221 58.0387 112.362 57.7499 112.594 57.5446C112.826 57.3393 113.13 57.2343 113.439 57.2527C113.748 57.271 114.038 57.4113 114.243 57.6426C114.448 57.8739 114.553 58.1773 114.535 58.4861C114.23 63.5304 115.857 69.5921 118.673 73.9318C118.842 74.1914 118.9 74.5073 118.835 74.8101C118.77 75.1128 118.588 75.3775 118.327 75.546C118.067 75.7145 117.751 75.7729 117.448 75.7085C117.144 75.644 116.879 75.4619 116.711 75.2023C115.114 72.6938 113.917 69.9528 113.163 67.0772Z" fill="#F2AE72"/>
</g>
</g>
</g>
<defs>
<clipPath id="clip0_9_98">
<rect width="107" height="213.277" fill="white" transform="matrix(0.258819 0.965926 0.965926 -0.258819 -31 55.2001)"/>
</clipPath>
</defs>
</svg>
