<svg width="28" height="28" viewBox="0 0 28 28" fill="none" xmlns="http://www.w3.org/2000/svg">
<path d="M16.3895 9.93427C16.3895 10.636 16.3621 11.2974 16.3582 11.9507C16.3498 12.307 16.3905 12.6628 16.4792 13.0073C16.533 13.2272 16.6533 13.4236 16.8227 13.5679C16.8645 13.6018 16.9136 13.625 16.9658 13.6356C17.0181 13.6461 17.072 13.6436 17.1232 13.6283C17.3055 13.5682 17.4723 13.4661 17.611 13.3299C17.9447 13.0121 18.2455 12.6594 18.5086 12.2773C19.4419 10.9423 20.2114 9.49287 20.7995 7.96221C20.9049 7.70411 21.0064 7.45004 21.1039 7.18791C21.1737 6.98756 21.3127 6.82095 21.4942 6.7201C21.6078 6.67689 21.7283 6.65636 21.8493 6.65961C21.904 6.65961 21.9625 6.65961 22.0211 6.65961H25.9238C26.1891 6.65961 26.4545 6.65961 26.7043 6.65961C26.8386 6.67748 26.9699 6.71411 27.0946 6.7685C27.1958 6.79901 27.2841 6.86363 27.3457 6.95206C27.4072 7.04048 27.4383 7.14764 27.4341 7.25647C27.4341 7.53334 27.3811 7.80746 27.278 8.06303C27.0163 8.71774 26.6866 9.34111 26.2945 9.92217C25.5647 11.0756 24.7334 12.1523 23.9529 13.2533C23.6914 13.6203 23.4455 13.9994 23.2114 14.3825C23.0727 14.5945 23.0093 14.8495 23.0319 15.1044C23.0652 15.3512 23.1747 15.5803 23.3441 15.7577C23.629 16.0722 23.9178 16.3828 24.2222 16.6772C25.0377 17.4294 25.8031 18.2378 26.5131 19.0969C26.844 19.5047 27.1294 19.9497 27.3639 20.4237C27.4214 20.5516 27.4609 20.6874 27.4809 20.8269C27.5163 20.9812 27.5023 21.1432 27.441 21.2886C27.3798 21.434 27.2747 21.555 27.1414 21.6335C26.8805 21.8038 26.5796 21.8972 26.2711 21.9037C25.1198 21.936 23.9685 21.9279 22.8211 21.9965C22.0831 22.0336 21.3595 21.7767 20.7995 21.2786C20.3766 20.9194 19.9848 20.5226 19.6287 20.093C19.2384 19.6534 18.8755 19.2098 18.4579 18.7904C18.2805 18.6103 18.0795 18.4569 17.8608 18.3347C17.7206 18.246 17.5543 18.2118 17.3919 18.2384C17.2295 18.2651 17.0816 18.3507 16.9749 18.4798C16.7816 18.7205 16.6465 19.0053 16.5807 19.3106C16.4555 19.7759 16.386 20.2554 16.3738 20.7382C16.3679 20.8584 16.3562 20.9782 16.3387 21.0971C16.3168 21.2497 16.254 21.3928 16.1574 21.5104C16.0609 21.628 15.9344 21.7153 15.7923 21.7626C15.6032 21.8444 15.4003 21.8868 15.1952 21.8876C14.6801 21.8876 14.1649 21.8876 13.6341 21.8876C12.7248 21.8767 11.8247 21.6978 10.9764 21.3593C9.44454 20.763 8.07389 19.7948 6.98004 18.5363C5.89457 17.3023 4.92738 15.9625 4.09204 14.5357C2.76895 12.3191 1.59535 10.0109 0.579605 7.62749C0.513309 7.47027 0.487754 7.29793 0.505454 7.12742C0.509201 7.06366 0.529719 7.00218 0.564794 6.94959C0.599869 6.897 0.648171 6.8553 0.704492 6.82899C0.896931 6.72858 1.10944 6.67609 1.32502 6.67574H5.20431C5.43435 6.69184 5.65492 6.77663 5.83921 6.91982C6.0235 7.063 6.16358 7.25841 6.24243 7.48231C6.57751 8.39769 6.98069 9.28487 7.44836 10.1359C7.95469 11.0833 8.52457 11.9929 9.15385 12.8581C9.36731 13.1781 9.63114 13.4589 9.93439 13.6888C10.031 13.7723 10.1496 13.8238 10.2748 13.8367C10.4001 13.8497 10.5262 13.8234 10.6369 13.7614C10.7579 13.6866 10.8523 13.5735 10.9062 13.4388C11.0479 13.1023 11.1349 12.7439 11.1637 12.3782C11.2489 11.5261 11.2659 10.6682 11.2145 9.81328C11.205 9.30298 11.1541 8.79441 11.0623 8.29291C11.0389 8.16789 10.9959 8.0469 10.9725 7.92189C10.9444 7.80562 10.8921 7.69708 10.8193 7.60377C10.7465 7.51045 10.655 7.43461 10.551 7.38149C10.2831 7.20942 9.97945 7.10574 9.6651 7.07902C9.57534 7.07902 9.54412 7.03063 9.58314 6.94997C9.61656 6.86969 9.66127 6.79495 9.71584 6.72817C10.0013 6.40741 10.3866 6.20045 10.8047 6.14341C11.4104 6.036 12.0246 5.98873 12.639 6.00226C13.3219 6.00226 14.0088 6.00226 14.6957 6.04662C14.9937 6.06615 15.2892 6.11613 15.5777 6.19583C15.8074 6.24302 16.015 6.36911 16.1666 6.55361C16.3183 6.73812 16.405 6.97019 16.4129 7.21211C16.4461 7.60094 16.4578 7.99141 16.448 8.38163C16.4402 8.90993 16.409 9.44226 16.3895 9.93427Z" fill="#373334"/>
</svg>
