<svg width="28" height="28" viewBox="0 0 28 28" fill="none" xmlns="http://www.w3.org/2000/svg">
<path d="M25.2709 9.16815C25.2709 9.16815 25.0463 7.50167 24.3545 6.76993C23.4785 5.80686 22.4992 5.80214 22.05 5.74549C18.8336 5.5 14.0045 5.5 14.0045 5.5H13.9955C13.9955 5.5 9.16641 5.5 5.95 5.74549C5.50078 5.80214 4.52148 5.80686 3.64551 6.76993C2.95371 7.50167 2.73359 9.16815 2.73359 9.16815C2.73359 9.16815 2.5 11.1273 2.5 13.0818V14.9135C2.5 16.868 2.7291 18.8271 2.7291 18.8271C2.7291 18.8271 2.95371 20.4936 3.64102 21.2254C4.51699 22.1884 5.66699 22.1554 6.1791 22.2592C8.0209 22.4433 14 22.5 14 22.5C14 22.5 18.8336 22.4906 22.05 22.2498C22.4992 22.1931 23.4785 22.1884 24.3545 21.2254C25.0463 20.4936 25.2709 18.8271 25.2709 18.8271C25.2709 18.8271 25.5 16.8727 25.5 14.9135V13.0818C25.5 11.1273 25.2709 9.16815 25.2709 9.16815ZM11.6236 17.137V10.3437L17.8363 13.7522L11.6236 17.137Z" fill="#373334"/>
</svg>
